<svg xmlns="http://www.w3.org/2000/svg" id="Layer_1" data-name="Layer 1" viewBox="0 0 1100 740"><defs><style>.cls-1{fill:#999}</style></defs><path d="M332.92 513.79a12.08 12.08 0 0 0-5.66-1.62h-.12c.36.12.73.26 1.1.4a62.64 62.64 0 0 1 9.16 4.43 24.76 24.76 0 0 0-4.48-3.21ZM367 607l-.68-.5-2.53-1.87c.94.78 2 1.62 3.13 2.48l.09-.11Zm413.68-87a5.35 5.35 0 0 0-.78-1.23 5.46 5.46 0 0 0-2.08-1.7 4.82 4.82 0 0 0-.92-.34h-.06a7.71 7.71 0 0 0-5.14.61l.18.28c.07.1.13.18.19.28a11.64 11.64 0 0 0 .86 1.08l.46.5a3.34 3.34 0 0 0 .37.38 4.17 4.17 0 0 0 .37.36H774.42a3.14 3.14 0 0 1 .4-.08 2.68 2.68 0 0 1 1.1.06 1.29 1.29 0 0 1 .41.16l.17.11a1.22 1.22 0 0 1 .29.23s0 0 .06 0a3.37 3.37 0 0 1 .29.35 4.43 4.43 0 0 1 .35.56 2.59 2.59 0 0 1 .14.29l.14.33a2.31 2.31 0 0 1 .1.28l.15.45v.1c.24.33.49.62.74.92a2.26 2.26 0 0 1 .25-.4 1.6 1.6 0 0 1 1.69-.57 1.9 1.9 0 0 1 .42.19 20 20 0 0 0-.4-3.2Z" class="cls-1"/><path d="M795.05 563.65a43.48 43.48 0 0 1-4.43-7.72c-1.4-3-2.79-6.4-4.06-10-.79-2.26-1.56-4.59-2.23-6.88a73 73 0 0 1-3.11-15.6v-.29a1.83 1.83 0 0 0-.42-.18 1.6 1.6 0 0 0-1.69.57 1.77 1.77 0 0 0-.26.39c-.25-.3-.5-.59-.74-.92v.59a46.5 46.5 0 0 0 .88 6.6c0 .15 0 .3.07.43a11.23 11.23 0 0 0-4.56-1c-2.86 0-6.17 1.28-9.17 4.77a1.46 1.46 0 0 0 .17 2.12 1.56 1.56 0 0 0 2.17-.17c2.6-2.95 4.89-3.67 6.83-3.7a8.53 8.53 0 0 1 4.16 1.19 8.4 8.4 0 0 1 1.08.72l.17.12.09.08c.58 2.42 1.29 4.92 2.1 7.42.37 1.26.79 2.5 1.21 3.73a110.43 110.43 0 0 0 4.51 11.26c.59 1.28 1.21 2.48 1.83 3.6a15.11 15.11 0 0 0-5.57-1.1 19 19 0 0 0-9.47 2.76 1.5 1.5 0 0 0-.57 2.07 1.58 1.58 0 0 0 2.11.55 15.82 15.82 0 0 1 7.93-2.35 12.19 12.19 0 0 1 6.36 1.81 12.34 12.34 0 0 1 1.68 1.25 3 3 0 0 1 .4.39l.12.1a1.42 1.42 0 0 0 .78.45 18.73 18.73 0 0 1 2.92 9.34s0-.1-.07-.14a26.7 26.7 0 0 0-4-4.86 8.85 8.85 0 0 0-6.1-2.43 15.31 15.31 0 0 0-6.59 1.75 51.21 51.21 0 0 0-8.81 5.66c-2.56 2-5.42 4.37-8.63 7.3a353.86 353.86 0 0 1-28.41 23c-.33.27-.65.52-1 .76l-1.45 1.09-2.53 1.87-4.58 3.11-2.55 1.72c-2.88 1.91-5.85 3.84-8.45 5.4-.71.42-1.39.83-2 1.2h-.08l-.56.32-1.15.62a95.85 95.85 0 0 1-10.18 5.28 24.52 24.52 0 0 1-8 2.25h-.52c-2.32 0-3.65-.68-4.55-1.69a4.72 4.72 0 0 1-.83-1.46l-.28-.83a8.84 8.84 0 0 1-.27-2.2 17.4 17.4 0 0 1 2-7.59 20.12 20.12 0 0 1 5.34-6.74c1.87-1.52 3.88-3 5.94-4.51l.07.11c.83-.64 1.65-1.24 2.48-1.82 3-2.16 5.86-4.1 8.53-5.82l2.6-1.63c2.88-1.77 5.4-3.22 7.33-4.31 1.11-.62 2-1.12 2.73-1.47l-.19-.26q10.15-5.86 21.73-11.69c.83-.43 1.58-.88 2.32-1.31h.12c.22-.12.43-.28.67-.4a1.11 1.11 0 0 1 .18-.12 11.73 11.73 0 0 0 1.4-1 23.38 23.38 0 0 0 5.24-4.92 14.19 14.19 0 0 0 3-8.56 16.58 16.58 0 0 0-3.4-9.64 20 20 0 0 0-3.61-3.77 1.1 1.1 0 0 1-.33-.38 14.74 14.74 0 0 1-1.76-1.1c-.57-.4-1.12-.81-1.7-1.19-.27-.17-.55-.33-.84-.49l-.42-.21-.18.05c-.08 0-.13-.09-.21-.14h-.09a2.51 2.51 0 0 1-.5-.07l.09.13-.46-.3-.07-.07c-.24-.15-.48-.31-.7-.47 2.1-1 4.27-2.12 6.44-3.37.77-.46 1.54-.92 2.32-1.43 1-.62 2-1.28 3-2 .83-.57 1.67-1.17 2.49-1.81l.1-.06a91.6 91.6 0 0 0 4.78-3.81c2.38-2 4.72-4.18 7-6.48 1.17-1.17 2.3-2.4 3.42-3.66.11-.06.22-.15.35-.22l.25-.16a3.41 3.41 0 0 1 .38-.21 4.09 4.09 0 0 1 .47-.23 4.55 4.55 0 0 1 .76-.32 2 2 0 0 1 .4-.12 4.17 4.17 0 0 1-.37-.36 4.6 4.6 0 0 1-.39-.38l-.44-.5a11.64 11.64 0 0 1-.86-1.08c-.06-.1-.12-.18-.19-.28l-.17-.28a12.89 12.89 0 0 0-2.52 1.5l-.28.18a99.5 99.5 0 0 1-14.77 13.6c-1.79 1.32-3.6 2.58-5.4 3.71a72.6 72.6 0 0 1-9.17 4.94l-.75.31a42.03 42.03 0 0 1-2.19-2.09 1.31 1.31 0 0 1-.3-.2c-.33-.37-.67-.72-1-1.1a8.54 8.54 0 0 1-1.08-1.45h-.07c-2.16-2.53-11-16.5-11.53-17.57A19.3 19.3 0 0 0 718 513a8.23 8.23 0 0 0-5.3-2 10.18 10.18 0 0 0-4.91 1.41 30.08 30.08 0 0 0-6.26 5c-1.93 1.87-3.71 3.79-5.24 5.09a187.71 187.71 0 0 1-15.13 11.64c-.3.22-.63.4-.95.59v.06a.29.29 0 0 1-.17.13c-.12.09-.26.17-.39.25a.31.31 0 0 1-.11.15 3.63 3.63 0 0 1-.79.5.33.33 0 0 0-.1.06v.05c-2.47 1.67-5 3.23-7.53 4.77v-.08a.22.22 0 0 1-.12.11c-.6.38-1.23.71-1.88 1a1.86 1.86 0 0 1-.25.1 2.6 2.6 0 0 1-.45.28l.1.11q-4.12 2.41-8.3 4.61a.51.51 0 0 1-.17.16 3 3 0 0 1-1 .41c-.07 0-.14.06-.23.07-.37.25-.77.48-1.18.71l-.46.2a250.56 250.56 0 0 1-56.25 20.06c-28.74 6.63-50.27 6.76-51.8 6.76a259.83 259.83 0 0 1-50-6.72 251.22 251.22 0 0 1-55.51-19.68v-.06a3.84 3.84 0 0 1-1.1-.53.65.65 0 0 1-.16-.09 4.11 4.11 0 0 1-1.28-.58.52.52 0 0 1-.18-.18v.05c-2.86-1.48-5.74-3-8.59-4.7a5.44 5.44 0 0 1-1-.54.76.76 0 0 1-.17-.15l-1.23-.63a.55.55 0 0 1-.2-.2c-2.55-1.54-5.11-3.11-7.63-4.77l-.09-.07s-.05 0-.06-.06a18 18 0 0 1-2-1.29.31.31 0 0 1-.1-.13.38.38 0 0 1-.18-.15 187 187 0 0 1-16-12.24c-2.05-1.75-4.53-4.56-7.2-6.95a24.16 24.16 0 0 0-4.29-3.16 10.2 10.2 0 0 0-4.93-1.41A8.18 8.18 0 0 0 382 513l-.14-.09a1.24 1.24 0 0 0-.14.18c-.53.61-1.08 1.2-1.62 1.8-.24.29-.49.56-.73.87a2.33 2.33 0 0 0-.19.23c-.1.14-.23.29-.34.46-.57.79-.94 1.75-1.49 2.58a.8.8 0 0 0-.08.16 95.93 95.93 0 0 1-11.53 17.57A99.28 99.28 0 0 1 339 518.45c-.54-.52-1.07-1-1.6-1.47a62.64 62.64 0 0 0-9.16-4.41c-.35-.14-.71-.28-1.06-.4a7.45 7.45 0 0 0-3.33.82 8.2 8.2 0 0 0-3.6 4 17.74 17.74 0 0 0-1.43 6.51c-.27 5.35-2.31 13.69-5 21.5a112.36 112.36 0 0 1-4.39 10.95 42.19 42.19 0 0 1-4.45 7.72 21.45 21.45 0 0 0-4.42 13.19c0 4.73 1.5 9.16 4.49 11.9a19.94 19.94 0 0 0 1.61 1.87 14.41 14.41 0 0 0 9.79 4.54 9.92 9.92 0 0 0 3-.47 8.12 8.12 0 0 0 4.3-3.25c.15-.24.27-.51.4-.75a1.49 1.49 0 0 0 .68-.74l4.11-10.24c2.06 1.67 4.34 3.61 6.82 5.87a359.6 359.6 0 0 0 29.5 23.86s.87.67 2.47 1.82 4.07 2.92 7.13 5l2.55 1.68c2.52 1.64 5.37 3.45 8.5 5.33.86.52 1.75 1 2.65 1.57 9.19 5.45 15.16 8 20.17 8.27h.66a8.76 8.76 0 0 0 6.89-2.75 8 8 0 0 0 1.21-2c0-.08.12-.15.14-.21l.09-.36a5.07 5.07 0 0 0 .28-.8l6.89-21.13a337.39 337.39 0 0 0 58.44 18 422.59 422.59 0 0 0 34 6c.87.13 1.7.24 2.54.35h-.06c8.19 1.08 20.25 2.42 31.87 2.78h.25c3.25-.37 38-4.34 44-5.14h.48c6.36-1.08 13.16-2.37 20.24-3.92a337.22 337.22 0 0 0 58.45-18L682 627c.08.28.19.56.27.83l.12.36a.72.72 0 0 1 .12.21 8 8 0 0 0 1.23 2 8.75 8.75 0 0 0 6.88 2.75h.66a27 27 0 0 0 9.09-2.49 104.77 104.77 0 0 0 11.93-6.29c.92-.54 1.79-1.07 2.64-1.6 3.23-2 6-3.73 8.49-5.32.91-.59 1.76-1.15 2.56-1.69 3.17-2.13 5.55-3.83 7.13-5s2.43-1.87 2.43-1.87a353.63 353.63 0 0 0 28.69-23.27c2.51-2.26 4.77-4.2 6.83-5.87l4.1 10.24a1.6 1.6 0 0 0 .69.74 6.83 6.83 0 0 0 .4.75 8.14 8.14 0 0 0 4.29 3.25 10 10 0 0 0 3 .47 14.41 14.41 0 0 0 9.79-4.54 18 18 0 0 0 1.62-1.89c3-2.74 4.47-7.16 4.49-11.88a21.54 21.54 0 0 0-4.4-13.24Zm-473.91 26.14a5 5 0 0 1-2.69 2 6.67 6.67 0 0 1-2.05.33c-2.55 0-5.4-1.45-7.58-3.65s-3.61-5-3.6-7.5a5.87 5.87 0 0 1 1-3.31 26 26 0 0 1 3.52-4.36 5.67 5.67 0 0 1 4-1.64 9.42 9.42 0 0 1 2.6.43l-4.94 8.32a1.47 1.47 0 0 0 .24 1.83 1.56 1.56 0 0 0 1.84.27 8.59 8.59 0 0 1 4.05-1.2 4 4 0 0 1 3.26 1.5 5.74 5.74 0 0 1 1.21 3.66 6.11 6.11 0 0 1-.86 3.32ZM415 626.08l-.28.85a4.91 4.91 0 0 1-.85 1.45c-.89 1-2.21 1.68-4.54 1.69h-.52a22.18 22.18 0 0 1-7.39-1.92 86.56 86.56 0 0 1-10.7-5.56c-.14-.06-.27-.15-.4-.22l.07-.09a28.07 28.07 0 0 1-2.75-1.44c-2.19-1.24-5.25-3.12-8.57-5.28-.84-.54-1.71-1.1-2.56-1.68-2.4-1.6-4.86-3.3-7.13-5-.85-.61-1.67-1.24-2.46-1.84-1.13-.86-2.19-1.7-3.13-2.48l-.09-.08c-9.21-6.84-18.32-14.27-25.89-21.16-3.22-2.93-6.08-5.35-8.64-7.3a50.43 50.43 0 0 0-8.8-5.66 15.39 15.39 0 0 0-6.6-1.75 8.89 8.89 0 0 0-6.11 2.43 28 28 0 0 0-4 4.86l-.06.14a18.83 18.83 0 0 1 2.92-9.34 1.49 1.49 0 0 0 .76-.43 10.66 10.66 0 0 1 2.35-1.81 11.94 11.94 0 0 1 6.2-1.74 15.85 15.85 0 0 1 7.93 2.35 1.59 1.59 0 0 0 2.12-.55 1.5 1.5 0 0 0-.56-2.07 19 19 0 0 0-9.49-2.76 14.94 14.94 0 0 0-5.53 1.09c.61-1.12 1.23-2.31 1.83-3.59a125.36 125.36 0 0 0 6.44-17.3c.82-2.81 1.52-5.56 2.06-8.18a13.88 13.88 0 0 1 1.85-2.22 9.2 9.2 0 0 1 2-1.47 5.34 5.34 0 0 1 2.39-.59 5.67 5.67 0 0 1 3 .91 14.58 14.58 0 0 1 3.89 3.71 1.58 1.58 0 0 0 2.16.31 1.52 1.52 0 0 0 .29-2.14 17.61 17.61 0 0 0-4.73-4.46 9 9 0 0 0-4.61-1.37 8.48 8.48 0 0 0-3.91 1 9.9 9.9 0 0 0-1.44 1c.13-.95.23-1.91.29-2.78a12.38 12.38 0 0 1 1.83-6.56 4.4 4.4 0 0 1 1.58-1.4 4 4 0 0 1 2-.46 8.91 8.91 0 0 1 4.18 1.25 23.19 23.19 0 0 1 5.37 4.15 102.78 102.78 0 0 0 26.85 18.49 31.64 31.64 0 0 1-9.64 7.32 18.23 18.23 0 0 0-6.77 5.77 16.43 16.43 0 0 0-3.38 9.64 14.12 14.12 0 0 0 2.95 8.56 23 23 0 0 0 5.24 4.93 13.85 13.85 0 0 0 1.39 1c.07.05.14.08.2.13.22.12.42.27.65.39a.41.41 0 0 1 .12 0c.74.43 1.49.88 2.32 1.31 8 4 15.58 8.11 22.6 12.19l-.19.26c.75.41 1.66.93 2.68 1.51l.15-.19c2.49 1.49 4.91 3 7.25 4.44l-.05.06c.86.51 1.75 1.05 2.63 1.6l.84.56a110.42 110.42 0 0 1 11.93 8.36s0 0 .05 0c1.13.86 2.24 1.72 3.32 2.59a20.12 20.12 0 0 1 5.34 6.74 17.56 17.56 0 0 1 2 7.59 9.79 9.79 0 0 1-.25 2.24Zm2.44-7.54a25.29 25.29 0 0 0-1.41-3.58 23.31 23.31 0 0 0-6.16-7.76c-2-1.62-4.19-3.25-6.43-4.86l-.06-.08a.54.54 0 0 1-.11 0c-6.24-4.52-13.21-9-20.8-13.51h-.12q-11.22-6.63-24.21-13.17a31.85 31.85 0 0 1-4.31-2.59 8.94 8.94 0 0 1-3.46-6.67 4.34 4.34 0 0 1 1.93-3.85 4.47 4.47 0 0 1 2.53-.75 8.6 8.6 0 0 1 3.74 1c4.16 2 9 6.82 13 10.56 14.4 13.14 32 23.38 50.42 31.42Zm258.11-16.34a1.66 1.66 0 0 0-.6.4 333.65 333.65 0 0 1-59 18.32 448 448 0 0 1-46.58 7.57c-5.94.65-10.73 1-14 1.28-1.65.12-2.92.18-3.78.23s-1.3.07-1.31.07a1.5 1.5 0 0 0-.32.08 2 2 0 0 0-.33-.08s-.44 0-1.3-.07A430.73 430.73 0 0 1 477 619.35c-35.08-8.3-75.5-23-103.3-48.39-2.67-2.42-5.73-5.46-8.9-7.91a27.88 27.88 0 0 0-4.87-3.14 11.79 11.79 0 0 0-5.11-1.34 7.7 7.7 0 0 0-4.22 1.24 7.16 7.16 0 0 0-3.2 5.11 10.72 10.72 0 0 1-.5-3.1 13.58 13.58 0 0 1 2.81-7.86 15.07 15.07 0 0 1 5.58-4.79c7.77-3.56 16.25-12.59 24.72-28.64.3-.57.61-1.1.92-1.61l4.54 1.34a1.58 1.58 0 0 0 1.65-.51 1.52 1.52 0 0 0 .15-1.67 12.41 12.41 0 0 0-2.7-3.19 4.8 4.8 0 0 1 2.66-.83 7 7 0 0 1 3.42 1 27.25 27.25 0 0 1 5.59 4.51c1.86 1.83 3.63 3.74 5.37 5.24 31 26.58 67.6 39.91 96.82 46.66a262.51 262.51 0 0 0 50.57 6.81h2a1.8 1.8 0 0 0 .32-.06 262.33 262.33 0 0 0 50.33-6.81c29.19-6.74 65.79-20.08 96.73-46.62 2.29-2 4.74-4.75 7.23-7a21.73 21.73 0 0 1 3.75-2.76 6.82 6.82 0 0 1 3.39-1 5.23 5.23 0 0 1 3.35 1.29 16.09 16.09 0 0 1 3.88 5.18c1.35 2.54 4.35 7 4.35 7.08s6 9.57 13.28 16.33c.49.48 1 .92 1.5 1.34a28.11 28.11 0 0 0 5.59 3.89 16.1 16.1 0 0 1 5.57 4.79 13.43 13.43 0 0 1 2.8 7.86 10.68 10.68 0 0 1-.48 3.1 7.23 7.23 0 0 0-3.18-5.11 7.81 7.81 0 0 0-4.24-1.24 12 12 0 0 0-5.13 1.34c-4.9 2.43-9.73 7.41-13.74 11.05-14.27 13-31.86 23.22-50.35 31.21a1.67 1.67 0 0 0-.4.06Zm8.37 12.8a25.36 25.36 0 0 0-1.42 3.58l-4.5-13.97c18.43-8 36-18.28 50.41-31.42 2.75-2.49 5.76-5.47 8.73-7.76a22.56 22.56 0 0 1 4.33-2.8 8.56 8.56 0 0 1 3.73-1 4.39 4.39 0 0 1 2.52.75 4.32 4.32 0 0 1 1.94 3.85 8.93 8.93 0 0 1-3.45 6.66 33.5 33.5 0 0 1-4.32 2.6q-12.5 6.3-23.41 12.7c-7.64 4.47-14.62 8.95-20.88 13.45h-.13s0 .08-.08.1c-2.5 1.8-4.94 3.62-7.21 5.42a23.57 23.57 0 0 0-6.26 7.84Zm92.79-34a7.86 7.86 0 0 0-1.08 1.86l-2-5a47.16 47.16 0 0 1 7.08-4.51l3.05 5.13a10 10 0 0 0-1.34-.1 7.19 7.19 0 0 0-5.71 2.55Zm14.46 7.55c-2.18 2.2-5 3.66-7.58 3.65a6.72 6.72 0 0 1-2.05-.33 5.12 5.12 0 0 1-2.7-2 6.11 6.11 0 0 1-.92-3.31 5.86 5.86 0 0 1 1.21-3.66 4 4 0 0 1 3.26-1.5 8.53 8.53 0 0 1 4.05 1.2 1.57 1.57 0 0 0 1.85-.27 1.5 1.5 0 0 0 .23-1.83l-4.95-8.32a9.66 9.66 0 0 1 2.61-.43 5.61 5.61 0 0 1 4 1.64 25.87 25.87 0 0 1 3.53 4.36 5.56 5.56 0 0 1 1 3.31 11.33 11.33 0 0 1-3.54 7.42Z" class="cls-1"/><path d="M585.93 629.41c3.37-.49 6.76-1 10.15-1.6l-.17-1.07-.17-1.07c-4.82.65-28.84 3.41-39.09 4.58l-4.89.56.1 1.08.14 1.11c.88-.05 3-.18 6-.41a21.38 21.38 0 0 0-7.13 8.43 20.72 20.72 0 0 0-6.88-8.28c2.27.17 3.89.26 4.77.3h.75a1.51 1.51 0 0 0 .49-.04 1.56 1.56 0 0 0 .44.06h1.25v-2.17c-11.6-.34-23.68-1.7-31.76-2.77h-.22l-.22.07c-.76.2-1.49.43-2.19.68-4.79 1.78-8.07 4.77-8.95 8.28a9.42 9.42 0 0 0 1.43 8.19 6.06 6.06 0 0 0 4.67 2.37 5.92 5.92 0 0 0 3-.87c2.5-1.51 2.48-3.14 2.24-4a3.43 3.43 0 0 0-3.2-2.3 2.29 2.29 0 0 0-1.61.6 2.18 2.18 0 0 1-1.3.56c-.22 0-.28-.07-.31-.11s-.42-.65 0-2.54c.56-2.32 4.28-4.33 9.47-5.14 1.65 0 4.63.52 5.83 2a3 3 0 0 1 .43 2.73.68.68 0 0 1-.67.53.53.53 0 0 1-.33-.17.88.88 0 0 1 0-.67l.4-1.79-1.79.52c-.28.08-2.84.86-3.52 2.84a3.56 3.56 0 0 0 .78 3.39 7.08 7.08 0 0 0 5.45 2.86c1.39 0 4.74-.55 6-5.7a8.2 8.2 0 0 0-.43-5.74c5.34 1.8 13.17 6.43 10.37 17.84-.62 2.51-2.56 4.73-5.49 6.27a18.2 18.2 0 0 1-4.87.88c-2.1 0-2.35-.73-2.42-1.09a4.2 4.2 0 0 0-8.4.1 4.07 4.07 0 0 0 2.16 3.55 19.37 19.37 0 0 0 2.75 1.08 21.65 21.65 0 0 0 6.38 1 11.11 11.11 0 0 0 1.14 0 5.16 5.16 0 0 0-1.6 2.17 4.57 4.57 0 0 0 .66 4 2.7 2.7 0 0 0 2.47 1.2 7.32 7.32 0 0 0 3.09-.82c-.17.15-.34.28-.5.41a4.92 4.92 0 0 0-2.22 3.71 3.73 3.73 0 0 0 1.37 3 3.16 3.16 0 0 0 2.1.73c.93 0 2.63-.35 4.41-2.44a7 7 0 0 1-1.26 1.52c-1.28 1.17-1.73 2.52-1.25 3.73s2.12 2.69 7.08 2.69 6.55-1.47 7.05-2.68 0-2.57-1.25-3.75a7.67 7.67 0 0 1-1.24-1.48 5.8 5.8 0 0 0 4.4 2.41 3.16 3.16 0 0 0 2.1-.73 3.71 3.71 0 0 0 1.35-3 4.86 4.86 0 0 0-2.22-3.7l-.52-.44a7.31 7.31 0 0 0 3.13.84 2.72 2.72 0 0 0 2.47-1.21 4.55 4.55 0 0 0 .63-4 5 5 0 0 0-1.57-2.15h1.23a21.8 21.8 0 0 0 9.16-2.11 4 4 0 0 0 2.17-3.55 4.21 4.21 0 0 0-8.41-.1c-.06.36-.31 1.09-2.4 1.09a18.11 18.11 0 0 1-4.89-.89c-2.92-1.54-4.87-3.76-5.47-6.27-1.3-5.25-.49-9.59 2.41-12.89a18.12 18.12 0 0 1 7.94-4.94 8.17 8.17 0 0 0-.4 5.74c1.26 5.15 4.61 5.7 6 5.7a7.07 7.07 0 0 0 5.46-2.86 3.53 3.53 0 0 0 .78-3.39c-.67-2-3.23-2.76-3.52-2.84l-1.78-.51.4 1.77a.84.84 0 0 1-.07.68.49.49 0 0 1-.38.15.64.64 0 0 1-.64-.52 3 3 0 0 1 .41-2.74c1.2-1.53 4.19-2 5.83-2 5.19.81 8.9 2.83 9.48 5.14.47 1.89.11 2.45 0 2.54s-.08.11-.31.11a2.06 2.06 0 0 1-1.28-.56 2.37 2.37 0 0 0-1.63-.6 3.42 3.42 0 0 0-3.2 2.3c-.24.84-.26 2.47 2.26 4a5.89 5.89 0 0 0 3 .87 6 6 0 0 0 4.65-2.36 9.4 9.4 0 0 0 1.43-8.2c-.8-3.17-3.54-5.9-7.49-7.7Zm-1.08 16.4c-4.18-2.5-.06-5.19 1.22-4s4.64 1.87 3.41-3.13c-.76-3-5.28-5.17-10.48-6-.65 0-8.82.24-7.39 6.11a1.67 1.67 0 1 0 3.24-.77s4.63 1.32 2.16 4.55-7.92 4-9.48-2.46c-.89-3.57.36-5.92 2.45-7.39-.35.06-.73.13-1.07.21-7.85 1.86-16.54 7.37-13.47 19.79.72 3 3 5.42 6.09 7 0 0 8.25 2.79 8.84-1.1a3.1 3.1 0 0 1 6.2 0 3 3 0 0 1-1.7 2.66h.14s-14.9 7.68-22.66-7.22v1.58s3.19 5.47 8.79 7.67 5.1 4.71 4 6.59-7.18 0-11.34-7.67c.16.41 2.91 7 6.54 9.87 2.24 1.71 2.24 3.75.81 5s-6.08.62-8.79-10.36c0 0-.72 7.92 3.51 11.77 2.23 2 1.22 4.53-5.05 4.53s-7.32-2.49-5.08-4.53c4.22-3.85 3.51-11.77 3.51-11.77-2.71 11-7.35 11.6-8.78 10.36s-1.44-3.3.8-5c3.65-2.83 6.37-9.46 6.54-9.87-4.15 7.67-10.2 9.54-11.34 7.67s-1.6-4.4 4-6.59 8.78-7.67 8.78-7.67v-1.35c-7.79 14.55-22.53 7-22.53 7h.15a3 3 0 0 1-1.7-2.67 3.1 3.1 0 0 1 6.19 0c.59 3.79 8.44 1.25 8.83 1.11 3.07-1.59 5.39-4 6.11-7 3.06-12.42-5.61-17.93-13.47-19.79-.34-.08-.72-.15-1.08-.21 2.1 1.47 3.35 3.82 2.48 7.39-1.6 6.42-7 5.68-9.5 2.46s2.16-4.55 2.16-4.55c-.56 2.52 2.73 2.83 3.25.77 1.43-5.87-6.76-6.1-7.41-6.11-5.2.8-9.71 2.93-10.45 6-1.24 5 2.1 4.34 3.39 3.13s5.4 1.47 1.24 4-9.12-1.92-7.49-8.5c.93-3.76 5-6.75 10.36-8.18 8.19 1.08 20.25 2.42 31.87 2.78l-1.22.08a1.38 1.38 0 0 1-.44-.09 1.33 1.33 0 0 1-.44.09s-3.68-.18-10-.71c5.94 3 10.26 7.83 11.31 13.33C552 639 556.47 634 562.6 631.09c-5.11.46-8.82.69-10.71.79 3.25-.37 38-4.33 44-5.14-5.21.88-10.1 1.62-14.64 2.23 5.69 1.34 10.09 4.43 11.07 8.34 1.62 6.58-3.32 11-7.47 8.5ZM775.94 520.06a2.68 2.68 0 0 0-1.1-.06 3.14 3.14 0 0 0-.4.08h-.15.14a3.68 3.68 0 0 1 .41-.08 2.62 2.62 0 0 1 1.1.06ZM389.22 596.37l-.05.06c-2.7-1.64-5.27-3.13-7.35-4.31l.15-.19c2.49 1.49 4.91 2.96 7.25 4.44ZM392.65 598.57c-.28-.19-.57-.36-.85-.54ZM390.92 622.43l-.16.15c-.14-.06-.27-.15-.4-.22l.07-.09a1.77 1.77 0 0 0 .49.16ZM367.05 606.97l-.09.11.08-.11h.01zM452.94 586.6c-2.41-.19-3-.09-3.65 1.95-.41 1.21-.82 2.42-1.22 3.62a20.68 20.68 0 0 0-1 3.84 58.5 58.5 0 0 1-10.6-2.29c-10.07-3.8-13.14-11.33-9.93-18.59 3.8-8.59 12.48-9.87 20.5-6.92a74.51 74.51 0 0 1 7.54 3.49c-.49 1.72-1.09 3.75-1.57 6.12l-.69-.11c.22-2.41-.2-5-2.57-6.79a15.11 15.11 0 0 0-4-2.1c-5.21-2-10.09.54-13.09 7.8-2.75 6.66-2.93 13.52 4.25 16.23a8.22 8.22 0 0 0 3.46.58c.77-.11 1.36-.42 2.05-2.33l1.38-3.87c.87-2.45.63-3-2.52-4.68.08-.2.15-.4.23-.61q5.75 2.14 11.56 4c0 .25-.07.45-.13.66ZM460.64 601l.18-.62c3.44.43 3.73.2 4.74-3.44q2.12-7.69 4.24-15.4c1-3.64.8-4-2-5.3l.18-.62c3.83 1.1 7.69 2.13 11.55 3.07l-.15.64c-3.11-.23-3.48-.13-4.43 3.58l-4 15.42c-1 3.78-.76 4.06 2.43 5.39l-.15.63q-6.31-1.5-12.59-3.35ZM508.39 604.28a63.17 63.17 0 0 1-2.77 6.31q-10.64-1.49-21.19-3.67c0-.21.09-.42.13-.63 4 .28 4.31 0 5-3.44q1.58-8.05 3.13-16.12c.69-3.55.43-3.79-2.58-5 0-.21.08-.42.13-.63q5.91 1.22 11.87 2.19c0 .22-.07.43-.1.65-3.19 0-3.53.26-4.14 3.7l-3 17.13c-.45 2.52.27 2.9 2.5 3.27l2.68.44c2.42.38 3.1.14 4.4-.65a14.43 14.43 0 0 0 3.34-3.85ZM541.23 606.94a64.79 64.79 0 0 1-2.09 6.56q-10.71-.37-21.39-1.45l.06-.65c4-.13 4.27-.46 4.57-3.93l1.44-16.36c.32-3.6 0-3.82-3.07-4.65l.07-.65c4 .4 8 .72 12 1v.65c-3.16.38-3.48.63-3.72 4.12q-.62 8.67-1.22 17.35c-.18 2.55.56 2.85 2.82 3l2.7.16c2.44.12 3.09-.18 4.29-1.11a14.19 14.19 0 0 0 2.92-4.16ZM574.26 606.42c-.11 1.44-.63 5.47-.83 6.46q-11 .78-22.1.81V613c3.89-.5 4.19-.73 4.14-4.34l-.26-16.5c-.06-3.66-.28-4-3.24-4.27v-.65q6.31 0 12.61-.33c4.08-.2 5.7-.37 6-.43.14 1.54.48 4.12.82 5.85l-.67.17a11.12 11.12 0 0 0-2-3.46c-.81-.84-1.74-1-4.2-.91l-3.14.13c-.87 0-1 .2-1 1 .11 3.24.22 6.47.32 9.71 1.4 0 2.8-.1 4.2-.17 3.42-.16 3.5-1.08 4-3.63h.68c.17 2.68.33 5.36.5 8h-.7c-.76-2.37-.95-3.36-4.37-3.19-1.41.07-2.81.12-4.22.17.1 2.88.19 5.77.29 8.65s.79 3.35 3.59 3.28l2.66-.13c2.66-.14 3.27-.51 4.32-1.68a13.51 13.51 0 0 0 2-4ZM606.2 588.14a9.26 9.26 0 0 0-2.53-3.46c-.84-.63-1.37-.74-3.48-.38l-3.39.55q1.56 10 3.13 20c.54 3.45 1 3.72 4.62 3.66 0 .21.07.42.1.64q-6.63 1.13-13.3 2c0-.22-.05-.43-.08-.65 3.2-1.07 3.67-1.27 3.18-4.81l-2.79-20c-1.26.18-2.52.34-3.78.5-1.79.22-2.23.72-2.74 1.4a11.46 11.46 0 0 0-1.46 4l-.72.08c0-2.21-.11-4.94-.25-7l.58-.06c.8.81 1.46.73 2.62.6q8.31-1 16.56-2.46a3.1 3.1 0 0 0 2.34-1.33l.53-.1c.34 1.79.92 4.66 1.52 6.66ZM640 579.81a9.07 9.07 0 0 0-2.92-3.15c-.91-.53-1.45-.57-3.52 0l-3.33.94 5.4 19.5c.93 3.36 1.45 3.57 5 3.1l.18.62q-6.5 1.89-13.06 3.5c0-.22-.1-.43-.16-.64 3.07-1.43 3.52-1.68 2.63-5.14q-2.52-9.8-5-19.59l-3.72.93c-1.76.43-2.15 1-2.58 1.7a11.59 11.59 0 0 0-1 4.19l-.71.16c-.27-2.18-.66-4.89-1-6.93l.57-.13c.89.72 1.55.57 2.69.3q8.18-2 16.26-4.36a3.14 3.14 0 0 0 2.19-1.6l.52-.16c.54 1.75 1.45 4.53 2.26 6.45ZM676.86 581.13c.36 1.4 1.18 5.38 1.31 6.39q-10.38 4.44-21 8.12L657 595c3.56-1.77 3.79-2.09 2.55-5.48L653.91 574c-1.25-3.44-1.56-3.66-4.5-3l-.22-.61q6-2.12 12-4.5c3.86-1.55 5.36-2.25 5.66-2.42.64 1.41 1.81 3.73 2.69 5.26l-.59.38a10.63 10.63 0 0 0-3.09-2.58c-1.05-.53-2-.39-4.34.54l-3 1.17c-.83.32-.93.53-.64 1.29l3.48 9.07c1.32-.51 2.65-1 4-1.56 3.24-1.3 3-2.19 2.62-4.75l.64-.26c1 2.47 2.07 4.95 3.1 7.42l-.66.28c-1.5-2-2-2.86-5.24-1.56-1.33.53-2.66 1.06-4 1.57 1 2.69 2.07 5.38 3.1 8.08s1.84 2.91 4.51 1.9l2.52-1c2.51-1 3-1.58 3.61-3a13.38 13.38 0 0 0 .63-4.46ZM529.46 134.81a1.31 1.31 0 0 0 .81.28 1.33 1.33 0 0 0 1.07-.53 26.58 26.58 0 0 1 13.25-9.35 1.34 1.34 0 1 0-.82-2.55 29.11 29.11 0 0 0-14.56 10.27 1.34 1.34 0 0 0 .25 1.88ZM506.24 214.67a1.35 1.35 0 0 0-1.85-.42 1.34 1.34 0 0 0-.42 1.85 84.75 84.75 0 0 0 17.29 19.33 1.4 1.4 0 0 0 .86.31 1.32 1.32 0 0 0 1-.49 1.34 1.34 0 0 0-.17-1.89 81.79 81.79 0 0 1-16.71-18.69ZM554.67 178.2c-1-.34-1.92-.72-2.88-1.13v32.61l2.88-1.24ZM562 180.05c-1-.15-1.92-.33-2.88-.55v27.05l2.88-1.24ZM569.23 180.49h-2.88l-.79 23.36 2.87-1.23ZM576.51 179.3c-.86.21-1.83.42-2.87.61l-1.85 21.3 2.88-1.24ZM547.77 177.07c-1 .41-1.92.79-2.88 1.13v30.24l2.88 1.24ZM540.49 179.5c-1 .22-1.92.4-2.88.55v25.26l2.88 1.24ZM534 203.85l-.8-23.36h-2.87l.8 22.13ZM527.77 201.21l-1.85-21.3c-1-.19-2-.4-2.87-.61l1.84 20.7ZM574.18 161.63A54.37 54.37 0 0 1 557 165v5.75a54.37 54.37 0 0 0 17.15-3.39ZM526 167.38a54.37 54.37 0 0 0 17.15 3.39V165a54.37 54.37 0 0 1-17.15-3.37ZM561.21 160.23a52.88 52.88 0 0 0 13.09-3.11.46.46 0 0 0 .27-.58.45.45 0 0 0-.58-.26 52.29 52.29 0 0 1-12.84 3.06.45.45 0 0 0 0 .89ZM525.85 157.12a52.9 52.9 0 0 0 13.1 3.11.45.45 0 0 0 0-.89 52.31 52.31 0 0 1-12.85-3.06.44.44 0 0 0-.57.26.45.45 0 0 0 .32.58ZM577.63 156.52v11.78a.45.45 0 1 0 .9 0v-11.78a.45.45 0 0 0-.9 0ZM521.92 168.75a.45.45 0 0 0 .45-.45v-11.78a.45.45 0 0 0-.9 0v11.78a.45.45 0 0 0 .45.45ZM523.48 151.94a1.8 1.8 0 1 0-1.8-1.8 1.81 1.81 0 0 0 1.8 1.8Zm0-2.71a.91.91 0 1 1-.91.91.9.9 0 0 1 .91-.91ZM529.39 146.4a1.81 1.81 0 1 0-1.8-1.81 1.81 1.81 0 0 0 1.8 1.81Zm0-2.71a.91.91 0 1 1-.9.9.9.9 0 0 1 .9-.9ZM536.56 142a1.8 1.8 0 1 0-1.81-1.8 1.81 1.81 0 0 0 1.81 1.8Zm0-2.71a.91.91 0 1 1-.91.91.9.9 0 0 1 .91-.88ZM544.78 139.32a1.8 1.8 0 1 0-1.8-1.8 1.81 1.81 0 0 0 1.8 1.8Zm0-2.71a.91.91 0 1 1-.9.91.91.91 0 0 1 .9-.91ZM576.52 151.94a1.8 1.8 0 1 0-1.8-1.8 1.81 1.81 0 0 0 1.8 1.8Zm0-2.71a.91.91 0 1 1-.9.91.91.91 0 0 1 .9-.91ZM570.61 146.4a1.81 1.81 0 1 0-1.81-1.81 1.81 1.81 0 0 0 1.81 1.81Zm0-2.71a.91.91 0 0 1 0 1.81.91.91 0 1 1 0-1.81ZM563.44 142a1.8 1.8 0 1 0-1.8-1.8 1.81 1.81 0 0 0 1.8 1.8Zm0-2.71a.91.91 0 1 1-.9.91.91.91 0 0 1 .9-.88ZM555.22 135.72a1.8 1.8 0 1 0 1.8 1.8 1.81 1.81 0 0 0-1.8-1.8Zm0 2.71a.91.91 0 1 1 .9-.91.91.91 0 0 1-.9.91ZM553.31 219.29a1.81 1.81 0 1 0 1.81 1.81 1.81 1.81 0 0 0-1.81-1.81Zm0 2.71a.91.91 0 0 1 0-1.81.91.91 0 1 1 0 1.81ZM553.31 228.33a1.81 1.81 0 1 0 1.81 1.8 1.81 1.81 0 0 0-1.81-1.8Zm0 2.71a.91.91 0 1 1 .91-.91.9.9 0 0 1-.91.87ZM553.31 237.37a1.8 1.8 0 1 0 1.81 1.8 1.81 1.81 0 0 0-1.81-1.8Zm0 2.71a.91.91 0 1 1 .91-.91.9.9 0 0 1-.91.91ZM524.86 207.46a1.81 1.81 0 1 0 1.81 1.8 1.81 1.81 0 0 0-1.81-1.8Zm0 2.71a.91.91 0 1 1 .91-.91.9.9 0 0 1-.91.91ZM514.51 216.21a1.81 1.81 0 1 0 1.8 1.8 1.81 1.81 0 0 0-1.8-1.8Zm0 2.71a.91.91 0 1 1 .91-.91.91.91 0 0 1-.91.91ZM520 212.18a1.8 1.8 0 1 0 1.8 1.8 1.81 1.81 0 0 0-1.8-1.8Zm0 2.71a.91.91 0 1 1 .91-.91.9.9 0 0 1-.91.91ZM574.84 207.46a1.81 1.81 0 1 0 1.81 1.8 1.81 1.81 0 0 0-1.81-1.8Zm0 2.71a.91.91 0 1 1 .91-.91.9.9 0 0 1-.91.91ZM585.2 219.82a1.81 1.81 0 1 0-1.8-1.81 1.81 1.81 0 0 0 1.8 1.81Zm0-2.71a.91.91 0 1 1-.91.9.9.9 0 0 1 .91-.9ZM579.74 212.18a1.8 1.8 0 1 0 1.8 1.8 1.81 1.81 0 0 0-1.8-1.8Zm0 2.71a.91.91 0 1 1 .9-.91.91.91 0 0 1-.9.91Z" class="cls-1"/><path d="M600.74 214.76c-.79-3.44-3.81-4.66-6.37-4.66a31.52 31.52 0 0 1-13.63-12.1l4.89-27.81a2 2 0 0 0-1.94-2.31 2.07 2.07 0 0 0-.35 0v-17.24a2 2 0 0 0-.21-.9 24.57 24.57 0 0 0-2-3.1 39.8 39.8 0 0 0-4.11-11.2 33.87 33.87 0 0 0-18.2-16v-2a2 2 0 0 0-1.15-1.79 18.46 18.46 0 0 0-2.51-.94 5.83 5.83 0 0 0-10.32 0 18.46 18.46 0 0 0-2.51.94 2 2 0 0 0-1.15 1.79v2c-17.65 6.44-21.71 24-22.33 27.27a24.89 24.89 0 0 0-2 3.06 2 2 0 0 0-.21.9v17.24a2 2 0 0 0-1.34.23 2 2 0 0 0-1 2l4.89 27.8a31.86 31.86 0 0 1-13.63 12.15c-2.56 0-5.58 1.22-6.37 4.66a1.94 1.94 0 0 0 .18 1.36 73.83 73.83 0 0 0 11.77 15.38 92 92 0 0 0 38.2 23.66 2 2 0 0 0 1.18 0 92 92 0 0 0 38.2-23.66 74.56 74.56 0 0 0 11.78-15.38 2 2 0 0 0 .24-1.35Zm-7.18-2.88c-.13.2-1.11 1.67-2.85 3.93-1.08-.37-7.17-2.67-13.35-10.38l.34-.15a.47.47 0 0 0 .27-.34l1.06-6a33.42 33.42 0 0 0 14.53 12.94Zm-83.72 4.63c1.88-.69 7.65-3.3 13.55-10.76L549.55 217v29.22c-19.13-5.93-33.48-21.76-39.71-29.71Zm46.56-98.79v2.49a36.71 36.71 0 0 0-6.35-1.31.17.17 0 0 0-.1 0 36.71 36.71 0 0 0-6.35 1.31v-2.49a15.85 15.85 0 0 1 12.8 0Zm-9.38-2a3.38 3.38 0 0 1 6 0 16.58 16.58 0 0 0-6.02.05Zm3 4c20.93 2.5 27 20.31 28.47 26-4.37-5.11-13.36-12.66-28.47-13.07-15.1.41-24.09 8-28.46 13.07 1.44-5.62 7.49-23.43 28.44-25.93Zm-.45 13.85v35.9c-14.72 8-25.78 4.05-30.48 1.51v-20.3c.71-1.25 9.41-16.26 30.46-17.04Zm.9 0c21 .79 29.75 15.79 30.48 17.11v20.3c-4.7 2.54-15.76 6.48-30.48-1.51Zm-33.51 37.17c.36.24.82.53 1.37.83a.37.37 0 0 0 .2.12c4.81 2.64 16.27 6.83 31.49-1.44 15.22 8.27 26.68 4.08 31.49 1.44a.37.37 0 0 0 .2-.12c.55-.3 1-.59 1.37-.83l-5.93 33.74-.49.21a.49.49 0 0 0-.31.09s0 .05-.06.07L550 216.23l-27.13-11.68ZM550.45 217l26.06-11.22c6 7.58 11.87 10.13 13.62 10.76-6.25 8-20.58 23.75-39.68 29.68ZM521 198.92l1.06 6a.47.47 0 0 0 .27.34l.24.1c-6 7.49-11.92 9.91-13.28 10.39-1.72-2.24-2.69-3.69-2.82-3.89A33.42 33.42 0 0 0 521 198.92Zm29 54.36c-34.58-11-48.82-38.07-48.82-38.07.65-2.84 3.35-3.14 4.42-3.14a.46.46 0 0 0 .06.25c.18.27 17.72 27.05 44.21 35h.26c26.49-7.9 44-34.68 44.21-35a.46.46 0 0 0 .06-.25c1.07 0 3.77.3 4.42 3.14 0 0-14.24 27.11-48.82 38.07Z" class="cls-1"/><path id="path3090" d="M621.31 254.82a8.11 8.11 0 1 1-8.11-8.11 8.12 8.12 0 0 1 8.11 8.11Zm-11.68 14.28a8.12 8.12 0 1 1-8.11-8.11 8.12 8.12 0 0 1 8.11 8.11Zm23.36 0a8.11 8.11 0 1 1-8.11-8.11 8.11 8.11 0 0 1 8.12 8.11Zm-22.17-4.3 3.84.26c.13 25 19.15 64.47 19.15 64.47l-11.95-11.42c-3.31 3.83-9.19 11.42-9.19 11.42a109.14 109.14 0 0 0-7.26-11.53l-13.61 11.4s18.76-39.1 19.02-64.6Z" class="cls-1"/><path id="path3090-2" d="M504.46 380a8.12 8.12 0 1 1-8.11-8.12 8.12 8.12 0 0 1 8.11 8.12Zm-11.68 14.27a8.12 8.12 0 1 1-8.11-8.11 8.12 8.12 0 0 1 8.11 8.07Zm23.36 0a8.11 8.11 0 1 1-8.11-8.11 8.11 8.11 0 0 1 8.11 8.07ZM494 389.93l3.83.27c.14 25 19.16 64.47 19.16 64.47l-12-11.43c-3.3 3.83-9.18 11.43-9.18 11.43a111.8 111.8 0 0 0-7.26-11.5L475 454.54s18.71-39.11 19-64.61Z" class="cls-1" data-name="path3090"/><path d="M692.44 352.06a5.07 5.07 0 0 0 2.24-.74 6.65 6.65 0 0 0 1.44-1.11 12.48 12.48 0 0 0 1.51-1.91c.26-.39.51-.83.77-1.31s.48-1 .72-1.57.47-1.19.7-1.86.45-1.39.64-2.17c.32-1.28.6-2.62.84-4s.41-2.82.59-4.28c.09-.72.16-1.46.22-2.2l.2-2.24c.06-.75.15-1.5.2-2.26s.11-1.51.17-2.27.13-1.52.2-2.28.13-1.51.2-2.27.17-1.53.25-2.29l.3-2.28c.2-1.52.47-3.05.79-4.59s.67-3.07 1.12-4.63a3.55 3.55 0 0 0-.92.84 13 13 0 0 0-2 3.52c-.35.89-.76 2-1.12 3.19-.19.63-.37 1.3-.55 2-.08.36-.17.73-.26 1.11s-.17.79-.26 1.21c-.18.82-.34 1.71-.5 2.64-.07.47-.15.95-.23 1.45s-.15 1-.23 1.54q-.23 1.59-.42 3.36c-.16 1.19-.3 2.45-.42 3.77-.09 1.14-.24 2.2-.37 3.19s-.27 1.94-.4 2.83c-.3 1.75-.59 3.28-.89 4.62s-.64 2.47-.94 3.46a22.75 22.75 0 0 1-.93 2.53 19.49 19.49 0 0 1-.89 1.82 11.25 11.25 0 0 1-.89 1.3 18.62 18.62 0 0 1-1.69 1.8l-1.33-33.46c-.45-11.31-.64-21.07-.71-24.2.64-.48 1.25-1.65 1.7-3.52 1.52-6.15 2.24-11.42 2.29-21.7 0-7.3-1-19.92-1.64-30.78-.33-5.43-.63-10.41-.85-14s-.32-5.9-.32-5.9-.46 2.2-1.19 5.73-1.63 8.44-2.49 13.82c-1.76 10.77-3.18 23.51-3.17 31.1 0 10 .89 15.58 2.51 21.71.51 1.9 1.14 3.1 1.81 3.58 0 3.12.19 12.9.52 24.22s.78 24.19 1.08 33.49a17.12 17.12 0 0 1-1.83-1.67 10.36 10.36 0 0 1-1-1.23q-.48-.72-1-1.74a25.61 25.61 0 0 1-1.12-2.45c-.37-1-.77-2.09-1.19-3.38s-.8-2.82-1.24-4.56c-.2-.87-.39-1.79-.6-2.79s-.42-2-.6-3.17c-.22-1.31-.45-2.56-.68-3.74s-.43-2.29-.65-3.34c-.12-.53-.23-1-.34-1.54s-.22-1-.33-1.44c-.21-.93-.43-1.81-.66-2.63-.12-.41-.23-.81-.34-1.2l-.33-1.11c-.22-.71-.44-1.38-.66-2-.44-1.23-.91-2.28-1.32-3.16a13.62 13.62 0 0 0-2.22-3.46 3.51 3.51 0 0 0-1-.81c.54 1.57 1 3.11 1.38 4.64s.76 3.08 1.06 4.61c.14.77.29 1.53.44 2.29l.39 2.29c.12.76.24 1.52.35 2.28l.36 2.28.33 2.27c.1.75.24 1.51.35 2.26l.36 2.22c.12.74.24 1.48.39 2.2.28 1.45.57 2.87.89 4.24s.73 2.68 1.14 3.93c.25.77.52 1.46.8 2.12s.56 1.25.84 1.81.55 1.06.84 1.51.57.87.86 1.25a13.46 13.46 0 0 0 1.64 1.79 7.31 7.31 0 0 0 1.52 1 5.08 5.08 0 0 0 2.29.57 2.8 2.8 0 0 0 .85-.11c.35 11.11.66 20.29.89 34.43a17.31 17.31 0 0 1-1.66-1.59 9.55 9.55 0 0 1-1-1.24 18.7 18.7 0 0 1-1-1.76 24.09 24.09 0 0 1-1.08-2.45c-.36-1-.75-2.08-1.16-3.38s-.76-2.81-1.19-4.54c-.18-.87-.37-1.79-.58-2.78s-.42-2-.59-3.15c-.22-1.31-.44-2.55-.67-3.73s-.43-2.28-.65-3.32c-.12-.53-.24-1-.35-1.53s-.22-1-.32-1.43c-.22-.92-.45-1.79-.68-2.61-.12-.41-.23-.8-.35-1.18s-.22-.75-.33-1.1c-.22-.71-.45-1.37-.68-2a30.92 30.92 0 0 0-1.34-3.12 13.37 13.37 0 0 0-2.25-3.42 3.5 3.5 0 0 0-1-.78c.55 1.54 1 3.07 1.42 4.58s.79 3.05 1.1 4.56l.45 2.27c.13.75.27 1.51.4 2.27l.36 2.26.36 2.26.33 2.25c.1.75.23 1.5.35 2.24l.35 2.21c.12.73.24 1.47.38 2.18.27 1.44.55 2.85.86 4.21s.7 2.67 1.1 3.92c.24.76.51 1.45.78 2.11s.54 1.25.81 1.8.54 1.07.82 1.52.56.87.84 1.25a13.72 13.72 0 0 0 1.61 1.81 7.17 7.17 0 0 0 1.51 1 5 5 0 0 0 2.27.61 3 3 0 0 0 .72-.06c.1 7.05.1 11.6.08 16.39s-.08 9.84-.41 17.86a20.34 20.34 0 0 1-1.45-1.55 12.46 12.46 0 0 1-.89-1.29 18.51 18.51 0 0 1-.9-1.79 26.72 26.72 0 0 1-1-2.49c-.32-1-.65-2.1-1-3.4s-.66-2.82-1-4.55c-.15-.87-.31-1.79-.49-2.77s-.35-2-.48-3.15c-.17-1.3-.36-2.53-.57-3.71s-.37-2.27-.56-3.3l-.31-1.52c-.1-.49-.2-1-.3-1.43-.2-.92-.41-1.79-.62-2.6-.11-.41-.22-.8-.32-1.18s-.22-.74-.32-1.1c-.21-.7-.42-1.36-.64-2-.43-1.22-.89-2.25-1.29-3.11a13.29 13.29 0 0 0-2.22-3.41 3.4 3.4 0 0 0-1-.78c.54 1.52 1 3 1.37 4.54s.74 3 1 4.52c.14.76.28 1.51.41 2.25l.36 2.25c.1.75.21 1.5.31 2.25l.3 2.24.27 2.23c.08.74.2 1.48.29 2.22l.28 2.19c.1.73.19 1.46.31 2.17.24 1.43.45 2.82.71 4.18s.61 2.67 1 3.91c.2.76.44 1.46.68 2.12s.48 1.26.73 1.82.48 1.07.74 1.53.52.9.77 1.28a13.27 13.27 0 0 0 1.52 1.88 7.34 7.34 0 0 0 1.46 1.1 5.09 5.09 0 0 0 2.23.73 3.82 3.82 0 0 0 .59 0c-.35 8-.71 12.25-1.1 16.63-.11 1.09-.21 2.19-.32 3.36s-.28 2.4-.44 3.76c-.33 2.71-.77 5.92-1.47 10.07a16.42 16.42 0 0 1-1.14-1.57 10.36 10.36 0 0 1-.72-1.38c-.23-.53-.44-1.14-.68-1.86a22.31 22.31 0 0 1-.69-2.55c-.21-1-.41-2.12-.65-3.44s-.36-2.82-.57-4.54c-.08-.87-.16-1.78-.25-2.77s-.18-2-.23-3.11c-.08-1.3-.16-2.52-.29-3.68s-.21-2.26-.34-3.29c-.07-.52-.14-1-.21-1.51s-.14-1-.21-1.42c-.14-.92-.3-1.78-.47-2.59-.08-.4-.17-.79-.25-1.18s-.17-.74-.26-1.09c-.17-.71-.35-1.36-.54-2a27.53 27.53 0 0 0-1.14-3.12 12.57 12.57 0 0 0-2.06-3.44 3.54 3.54 0 0 0-.93-.81c.46 1.52.84 3 1.16 4.51s.59 3 .8 4.48c.09.74.19 1.49.28 2.22s.15 1.48.23 2.22l.18 2.21.15 2.21.12 2.2.13 2.18.11 2.16c.05.71.09 1.42.14 2.12.1 1.41.21 2.79.36 4.14s.33 2.63.56 3.88c.14.76.29 1.46.46 2.12s.34 1.27.52 1.84.37 1.11.58 1.58.41.93.62 1.34a13.53 13.53 0 0 0 1.27 2 7.26 7.26 0 0 0 1.31 1.26 5.17 5.17 0 0 0 2.13 1 2.93 2.93 0 0 0 .45.07c-.75 4.13-1.42 7.22-2 9.79-.33 1.28-.62 2.43-.9 3.53s-.61 2.09-.91 3.11-.64 2-1 3.08-.73 2.19-1.21 3.41c-.24.61-.48 1.25-.74 1.93s-.58 1.38-.9 2.12c-.61 1.51-1.43 3.13-2.34 5a15.31 15.31 0 0 1-.57-1.66 9.65 9.65 0 0 1-.31-1.5c-.08-.56-.1-1.19-.16-1.94a23.71 23.71 0 0 1 0-2.56c0-1 .1-2.08.16-3.37s.24-2.72.39-4.38c.1-.82.19-1.7.28-2.65s.21-1.92.34-3c.13-1.25.23-2.42.31-3.54s.12-2.18.15-3.18V456.75c0-.9-.06-1.74-.11-2.54 0-.39-.08-.78-.12-1.16s-.08-.73-.12-1.08c-.09-.7-.19-1.34-.3-1.95A24.15 24.15 0 0 0 676 447a11.24 11.24 0 0 0-1.69-3.51 3.24 3.24 0 0 0-.86-.87 35.51 35.51 0 0 1 .7 4.42 38.17 38.17 0 0 1 .3 4.35v2.15c0 .71 0 1.42-.07 2.12s-.08 1.42-.11 2.12-.12 1.39-.17 2.09-.13 1.39-.2 2.08-.15 1.37-.23 2.05l-.22 2c-.1.67-.19 1.33-.25 2s-.14 1.32-.2 2-.15 1.27-.23 1.9-.08 1.27-.12 1.88-.09 1.21-.12 1.8 0 1.41 0 2.06 0 1.24.06 1.81.09 1.1.17 1.6.17 1 .26 1.39a13.22 13.22 0 0 0 .68 2.21 7.64 7.64 0 0 0 .89 1.57 5.56 5.56 0 0 0 1.72 1.59l.29.15c-.49.9-1 1.75-1.41 2.55s-.94 1.51-1.36 2.21c-.84 1.41-1.73 2.57-2.5 3.66a56.67 56.67 0 0 1-4.5 5.36c-.71.81-1.52 1.51-2.32 2.28s-1.69 1.51-2.67 2.32a51.52 51.52 0 0 1-7.71 5.17c.12-.48.26-.94.42-1.5a10.52 10.52 0 0 1 .53-1.42c.24-.51.53-1.07.89-1.68s.72-1.37 1.26-2.14c.25-.39.53-.8.83-1.25l.9-1.46c.33-.51.72-1 1.08-1.6l1.16-1.85c.44-.62.84-1.35 1.3-2.09l.7-1.13.7-1.23c.28-.49.56-1 .82-1.44s.47-1 .69-1.43a23 23 0 0 0 1.15-2.66c.16-.44.3-.85.45-1.27s.3-.78.4-1.19c.22-.79.42-1.54.58-2.25.08-.36.16-.69.21-1s.1-.67.15-1c.09-.64.16-1.23.2-1.8a21.87 21.87 0 0 0 0-3 9.67 9.67 0 0 0-.9-3.52 3.28 3.28 0 0 0-.65-1 26.38 26.38 0 0 1-.24 4c-.08.66-.18 1.31-.28 2s-.28 1.25-.44 1.87-.31 1.26-.51 1.84l-.61 1.77a17.81 17.81 0 0 1-.69 1.73l-.73 1.7c-.27.56-.56 1.07-.83 1.62s-.52 1.11-.84 1.61l-.83 1.56c-.28.53-.61 1-.91 1.51l-.89 1.5-.93 1.43c-.3.48-.57 1-.86 1.46s-.59.92-.87 1.39-.62 1.15-.93 1.65-.55 1-.78 1.51-.44 1-.63 1.4-.36.85-.5 1.26a13.74 13.74 0 0 0-.58 2.21 8.66 8.66 0 0 0-.12 1.76 5.45 5.45 0 0 0 .54 2.27l.09.18a58.89 58.89 0 0 1-8.9 3.83c-1.31.43-2.57.76-3.75 1.12s-2.36.56-3.5.84a89.69 89.69 0 0 1-15.7 1.86c.29-.33.6-.66 1-1a12.57 12.57 0 0 1 1.17-1c.47-.34 1-.7 1.65-1.08s1.37-.76 2.26-1.22 1.88-.93 3-1.44 2.47-1.13 4-1.75c.75-.3 1.51-.68 2.34-1s1.7-.73 2.59-1.17a30.91 30.91 0 0 0 2.94-1.5c.89-.52 1.72-1 2.48-1.49l1-.79 1-.73a15.41 15.41 0 0 0 1.66-1.49l.71-.72a6.76 6.76 0 0 0 .63-.68c.38-.47.72-.91 1-1.34a11.79 11.79 0 0 0 1.32-2.37 7.24 7.24 0 0 0 .73-3.24 3.34 3.34 0 0 0-.17-1.09c-.26.53-.53 1.05-.82 1.57s-.65.94-1 1.41a17.76 17.76 0 0 1-2.3 2.6c-.4.43-.88.76-1.31 1.14s-.91.75-1.39 1.1l-1.49 1a15.16 15.16 0 0 1-1.54.95l-1.61.86c-.53.29-1.08.58-1.65.83l-1.67.79c-.54.28-1.14.48-1.7.74-1.13.5-2.24 1-3.38 1.48s-2.19 1.07-3.26 1.54a18.21 18.21 0 0 0-1.82.94c-.56.32-1.07.66-1.56.95s-.95.58-1.35.88-.78.6-1.12.9a13.56 13.56 0 0 0-1.65 1.69 7 7 0 0 0-1 1.51 5.24 5.24 0 0 0-.56 2.27v.07l-4.86.09h-2.36l-2.28.11c-3 .14-5.84.41-8.57.72a149.76 149.76 0 0 0-15.65 2.66c.2-.33.43-.67.7-1a9.89 9.89 0 0 1 1.11-1.28 15.07 15.07 0 0 1 1.6-1.3 22.75 22.75 0 0 1 2.33-1.5c.93-.52 2-1.06 3.33-1.66s2.84-1.11 4.62-1.74c.89-.29 1.86-.55 2.89-.84s2.13-.57 3.32-.8c1.39-.3 2.71-.58 4-.83s2.45-.49 3.59-.68l1.66-.32 1.55-.31c.85-.21 1.64-.42 2.38-.64l1.07-.33 1-.32c.63-.24 1.2-.48 1.74-.73a21.17 21.17 0 0 0 2.66-1.42 10.82 10.82 0 0 0 2.67-2.47 3.07 3.07 0 0 0 .53-1 37.45 37.45 0 0 1-3.64 1.7c-1.28.45-2.56.85-3.86 1.2-.66.16-1.33.28-2 .43l-2 .37c-.59.13-1.54.22-2.36.33l-2.52.33-2.49.38c-.83.12-1.65.25-2.47.41l-2.41.48c-.79.16-1.59.32-2.35.53-1.55.42-3.07.8-4.5 1.29s-2.8 1-4.07 1.61a22.19 22.19 0 0 0-2.13 1.1c-.65.35-1.24.74-1.78 1.1s-1 .73-1.44 1.09a15.42 15.42 0 0 0-1.16 1.06 13 13 0 0 0-1.54 2 7.2 7.2 0 0 0-.74 1.69 4.93 4.93 0 0 0-.14 2.29 160.29 160.29 0 0 0-21 6.38 137.58 137.58 0 0 0-22.74 11 81.28 81.28 0 0 0-16.56 13 47 47 0 0 0-4.16 5l-1 1.5a5.38 5.38 0 0 0-.33.54 6 6 0 0 0-1 3.08c0 .9.3 1.54.85 1.75a2 2 0 0 0 1.86-.5 7.75 7.75 0 0 0 1.84-2.15 3.62 3.62 0 0 1 .29-.47l.89-1.34a41 41 0 0 1 3.75-4.62 77.57 77.57 0 0 1 15.63-12.44 133.75 133.75 0 0 1 22-10.87 156.6 156.6 0 0 1 20.43-6.39 5.1 5.1 0 0 0 1.11 2 7 7 0 0 0 1.33 1.22 13.41 13.41 0 0 0 2.07 1.16c.42.19.87.38 1.36.56s1 .33 1.58.48 1.18.29 1.83.44 1.36.28 2.1.38c1.22.14 2.49.32 3.79.43l4 .27 2 .11 2 .11c.69 0 1.37.13 2.05.16l2 .14 2 .25c.7.08 1.28.14 2.21.22l2.57.27c.85.09 1.71.21 2.58.28 1.75.13 3.52.31 5.32.55s3.65.32 5.56.58a4.18 4.18 0 0 0-1.09-.82 17.53 17.53 0 0 0-4.28-1.62c-1-.28-2.26-.65-3.67-.95-.71-.15-1.46-.3-2.27-.44l-1.24-.26-1.32-.27c-.91-.18-1.88-.35-2.9-.51l-1.34-.25-1.42-.26c-1-.18-2-.29-3.11-.4s-2.29-.25-3.53-.31l-3-.2-2.68-.2c-1.69-.13-3.17-.3-4.48-.42s-2.42-.33-3.41-.5a25 25 0 0 1-2.56-.54c-.73-.2-1.35-.41-1.89-.6a9.87 9.87 0 0 1-1.41-.63c-.38-.21-.72-.42-1-.64a148.51 148.51 0 0 1 15.26-2.72c2.66-.32 5.42-.59 8.34-.75l2.23-.13h2.29l4.91-.14v.07a5 5 0 0 0 .75 2.24 6.78 6.78 0 0 0 1.16 1.46 11.86 11.86 0 0 0 2 1.44c.43.24.9.48 1.43.72s1.1.44 1.73.65a19.59 19.59 0 0 0 2.08.54c.76.17 1.57.32 2.45.43a35.31 35.31 0 0 0 4.58.26 44.81 44.81 0 0 0 5-.3 25.69 25.69 0 0 0 2.56-.34l2.61-.48c.88-.17 1.77-.33 2.64-.59l2.66-.71c.89-.22 1.78-.53 2.67-.81l2.67-.9 2.67-1c.89-.35 1.81-.65 2.69-1.07 1.76-.8 3.61-1.52 5.4-2.41l2.75-1.3 2.76-1.4a4.27 4.27 0 0 0-1.42-.05 31 31 0 0 0-4.82 1l-3.94 1.18c-.76.23-1.55.48-2.39.77-.42.15-.86.27-1.32.4l-1.41.41c-1 .26-2 .63-3.06.88l-1.66.44-1.76.46-3.81.85c-1.33.32-2.76.48-4.23.76a28.31 28.31 0 0 1-3.56.42c-1.13.08-2.16.2-3.14.2-1.95-.05-3.64-.06-5.1-.22s-2.69-.4-3.76-.62a16 16 0 0 1-2.7-.8 19.74 19.74 0 0 1-1.92-.82 10.21 10.21 0 0 1-1.35-.84c-.41-.32-.75-.64-1.08-.95a92.71 92.71 0 0 0 16.26-2.06c1.19-.3 2.41-.54 3.66-.9s2.54-.75 3.92-1.21a62.26 62.26 0 0 0 9.35-4.11l.1.17a4.66 4.66 0 0 0 1.69 1.67 6.15 6.15 0 0 0 1.74.74 11.54 11.54 0 0 0 2.56.26c.52 0 1.08 0 1.68-.08a12 12 0 0 0 1.9-.37c.69-.17 1.42-.38 2.2-.63a16.76 16.76 0 0 0 2.43-1c.7-.34 1.41-.71 2.12-1.09s1.39-.86 2.11-1.32 1.4-1 2.09-1.49l2-1.68a24.27 24.27 0 0 0 2-1.81l1.98-1.98c.66-.64 1.24-1.34 1.84-2s1.2-1.39 1.77-2.11l1.68-2.16c.57-.72 1.12-1.46 1.63-2.21l1.59-2.23c.56-.73 1-1.49 1.54-2.25s1-1.51 1.55-2.27 1-1.52 1.53-2.28c1.06-1.52 2-3.05 3.14-4.59a3.66 3.66 0 0 0-1.22.56 20 20 0 0 0-3.46 3c-.76.78-1.61 1.73-2.57 2.85-.5.56-1 1.17-1.55 1.82l-.82 1c-.28.36-.6.71-.91 1.08-.64.74-1.29 1.53-2 2.37-.33.43-.72.85-1.1 1.29l-1.18 1.34c-.78.94-1.68 1.88-2.61 2.89-.48.5-.94 1-1.46 1.54l-1.6 1.56c-.46.46-.91.91-1.37 1.31l-1.38 1.14c-.91.72-1.72 1.42-2.58 2s-1.65 1.07-2.39 1.53-1.51.82-2.18 1.18-1.33.62-1.93.88-1.2.43-1.74.61a16.51 16.51 0 0 1-2.81.73 19.64 19.64 0 0 1-2.14.21 9.9 9.9 0 0 1-1.62-.1 8.69 8.69 0 0 1-1.58-.39 54.33 54.33 0 0 0 8.11-5.54c1-.86 2-1.63 2.81-2.47s1.69-1.57 2.43-2.43a59.24 59.24 0 0 0 4.69-5.67c.8-1.15 1.72-2.37 2.59-3.85.44-.73.95-1.48 1.4-2.32l1.45-2.66.29.15a4.73 4.73 0 0 0 2.32.44 6.75 6.75 0 0 0 1.82-.34 12.2 12.2 0 0 0 2.29-1.12 12.45 12.45 0 0 0 1.33-.93c.44-.35.9-.78 1.38-1.24s1-1 1.5-1.58 1-1.22 1.51-2 .83-1.2 1.24-1.84.77-1.29 1.15-2l1.09-2.09c.35-.72.67-1.44 1-2.18s.64-1.49 1-2.25l.86-2.3c.29-.77.6-1.55.87-2.33l.77-2.36.79-2.37c.25-.79.49-1.58.73-2.37s.51-1.58.77-2.38l.75-2.36c.52-1.58 1.07-3.17 1.64-4.75s1.19-3.18 1.86-4.77a3.54 3.54 0 0 0-1 .75 15.72 15.72 0 0 0-2.58 3.44c-.52.87-1.07 1.92-1.68 3.16-.31.63-.62 1.3-.94 2l-.47 1.12c-.16.39-.33.78-.51 1.2-.36.83-.72 1.71-1.08 2.66-.18.47-.37.95-.55 1.45s-.41 1-.63 1.55c-.42 1.06-.84 2.18-1.28 3.37s-1 2.43-1.51 3.76c-.43 1.13-1 2.17-1.39 3.14s-.89 1.89-1.35 2.73c-.94 1.67-1.76 3.09-2.61 4.3a34.12 34.12 0 0 1-2.32 3 22.65 22.65 0 0 1-2 2 13.66 13.66 0 0 1-1.66 1.3 10.82 10.82 0 0 1-1.41.78 13.38 13.38 0 0 1-1.68.61c.93-1.94 1.77-3.62 2.39-5.19.32-.77.64-1.49.91-2.19l.74-2c.49-1.26.88-2.41 1.22-3.51s.71-2.12 1-3.17.59-2.08.9-3.19.57-2.29.89-3.6c.62-2.62 1.27-5.77 2-10a3.73 3.73 0 0 0 .45.08 4.88 4.88 0 0 0 2.34-.27 6.79 6.79 0 0 0 1.63-.83 12.41 12.41 0 0 0 1.86-1.64c.33-.36.67-.75 1-1.2s.65-.93 1-1.48.67-1.14 1-1.79a19.36 19.36 0 0 0 1-2.14c.51-1.26 1-2.6 1.45-4s.77-2.86 1.14-4.36c.2-.74.35-1.5.5-2.26l.44-2.29c.15-.78.33-1.55.44-2.33l.39-2.34c.14-.78.28-1.56.41-2.35l.39-2.34.42-2.35.45-2.35c.3-1.56.66-3.14 1.07-4.72s.81-3.15 1.33-4.76a3.76 3.76 0 0 0-1 .83 14.33 14.33 0 0 0-2.19 3.56c-.4.89-.88 2-1.31 3.23-.23.63-.45 1.31-.67 2-.11.37-.21.74-.33 1.13s-.23.8-.35 1.22c-.24.84-.47 1.74-.7 2.69-.11.47-.22 1-.34 1.46s-.25 1-.38 1.57c-.25 1.07-.5 2.21-.74 3.41s-.55 2.48-.82 3.82c-.22 1.15-.49 2.22-.75 3.22s-.53 1.95-.77 2.84c-.53 1.75-1.08 3.27-1.56 4.58s-1 2.41-1.5 3.36a22.84 22.84 0 0 1-1.36 2.38 15.26 15.26 0 0 1-1.23 1.66 9.22 9.22 0 0 1-1.12 1.13 13.25 13.25 0 0 1-1.57 1.15c.68-4.22 1.1-7.47 1.41-10.21.15-1.37.28-2.62.41-3.8s.2-2.29.3-3.39c.37-4.42.7-8.73 1-16.76a3.2 3.2 0 0 0 .59 0 4.85 4.85 0 0 0 2.29-.57 6.77 6.77 0 0 0 1.52-1 12.24 12.24 0 0 0 1.63-1.83c.28-.38.57-.8.86-1.27s.55-1 .82-1.55.54-1.19.8-1.85.54-1.39.77-2.18c.39-1.28.73-2.63 1-4s.54-2.86.77-4.34c.11-.74.21-1.49.3-2.24l.28-2.28c.08-.76.19-1.53.25-2.29s.16-1.54.23-2.32.17-1.54.26-2.31l.24-2.32c.09-.78.19-1.55.29-2.33s.21-1.54.32-2.32c.22-1.55.49-3.11.83-4.68s.67-3.13 1.12-4.72a3.61 3.61 0 0 0-.93.85 13.85 13.85 0 0 0-2 3.59c-.36.9-.78 2-1.15 3.24-.2.64-.38 1.31-.56 2l-.27 1.13c-.09.4-.19.8-.28 1.22-.19.84-.37 1.73-.54 2.68-.08.47-.17 1-.25 1.46s-.18 1-.28 1.56c-.17 1.07-.34 2.21-.5 3.4s-.35 2.47-.53 3.81c-.14 1.15-.32 2.21-.49 3.22s-.34 2-.51 2.84c-.39 1.77-.74 3.3-1.12 4.64s-.77 2.46-1.13 3.44a19.74 19.74 0 0 1-1.09 2.5 20.25 20.25 0 0 1-1 1.77 11.42 11.42 0 0 1-1 1.24 14.62 14.62 0 0 1-1.55 1.45c.26-8.06.25-13.12.27-17.93s-.05-9.38-.2-16.43a3.49 3.49 0 0 0 .72 0 5 5 0 0 0 2.25-.7 6.57 6.57 0 0 0 1.46-1.09 12.35 12.35 0 0 0 1.54-1.89c.26-.39.52-.83.79-1.3s.5-1 .75-1.58.48-1.19.71-1.86.47-1.4.67-2.18c.33-1.28.62-2.63.88-4s.42-2.84.61-4.31c.1-.73.16-1.47.23-2.22l.21-2.25c.06-.76.15-1.52.19-2.28s.12-1.52.17-2.29.14-1.53.2-2.3.13-1.53.2-2.29l.24-2.31c.09-.76.18-1.53.28-2.3.19-1.54.44-3.08.75-4.64s.64-3.1 1.08-4.67a3.5 3.5 0 0 0-.92.85 13.18 13.18 0 0 0-2 3.58c-.35.89-.75 2-1.11 3.21-.18.64-.36 1.31-.53 2-.08.36-.16.74-.25 1.12s-.17.8-.26 1.21c-.17.84-.33 1.72-.48 2.67l-.22 1.46c-.07.46-.16 1-.24 1.55-.15 1.06-.29 2.19-.41 3.38s-.3 2.46-.43 3.79c-.1 1.14-.25 2.2-.38 3.21s-.28 1.95-.41 2.83c-.32 1.76-.62 3.3-.93 4.64s-.67 2.48-1 3.47a22 22 0 0 1-1 2.52c-.32.71-.63 1.3-.92 1.81a9.34 9.34 0 0 1-.91 1.29 15.81 15.81 0 0 1-1.6 1.65c-.33-14.16-.71-23.34-1.15-34.45a3.14 3.14 0 0 0 .95.23Z" class="cls-1"/><path d="M693 314.33a10.28 10.28 0 0 1-.89 1.29 20.46 20.46 0 0 1-1.73 1.82 2.82 2.82 0 0 0 .88.05 5.16 5.16 0 0 0 2.24-.72 7.29 7.29 0 0 0 1.45-1.11 12.34 12.34 0 0 0 1.52-1.89q.39-.58.78-1.29c.25-.47.49-1 .73-1.56s.48-1.19.72-1.85.46-1.38.66-2.16c.34-1.26.63-2.59.89-4s.45-2.8.65-4.25c.1-.72.18-1.45.26-2.19l.24-2.22c.07-.74.17-1.49.23-2.24s.15-1.49.22-2.25.16-1.5.25-2.26.17-1.5.25-2.26l.3-2.26c.12-.74.23-1.5.35-2.26.25-1.5.55-3 .91-4.54s.75-3 1.25-4.55a3.53 3.53 0 0 0-1 .8 12.77 12.77 0 0 0-2.13 3.45c-.38.86-.81 1.91-1.21 3.13-.2.62-.4 1.28-.6 2-.09.36-.18.73-.28 1.11s-.19.78-.29 1.19c-.19.81-.38 1.69-.55 2.62-.09.46-.18.94-.26 1.43s-.18 1-.28 1.53c-.17 1.05-.33 2.16-.48 3.34s-.34 2.42-.49 3.74c-.11 1.13-.27 2.18-.41 3.17l-.45 2.81c-.32 1.74-.63 3.26-.94 4.59s-.67 2.46-1 3.44a23.27 23.27 0 0 1-.95 2.51c-.3.74-.6 1.33-.84 1.84ZM674.47 280.93c.13.78.26 1.56.38 2.32s.23 1.54.35 2.31l.3 2.31c.1.77.21 1.53.31 2.3s.19 1.53.29 2.29.21 1.52.31 2.28l.32 2.24c.11.75.21 1.49.35 2.22.26 1.46.53 2.9.83 4.28s.7 2.71 1.1 4c.23.77.5 1.47.77 2.14s.55 1.26.82 1.82.54 1.07.83 1.53.57.88.85 1.26a13.59 13.59 0 0 0 1.63 1.8 7.21 7.21 0 0 0 1.52 1 5.08 5.08 0 0 0 2.28.58 3 3 0 0 0 .88-.11 16.87 16.87 0 0 1-1.85-1.71 10.36 10.36 0 0 1-1-1.23c-.32-.49-.65-1.07-1-1.76a23.28 23.28 0 0 1-1.09-2.47c-.37-1-.76-2.09-1.16-3.4s-.77-2.84-1.18-4.59c-.19-.87-.37-1.81-.56-2.81s-.39-2-.55-3.19c-.21-1.33-.4-2.58-.62-3.78s-.38-2.3-.58-3.37c-.11-.53-.21-1-.31-1.55s-.2-1-.29-1.45c-.2-.94-.4-1.83-.61-2.66l-.31-1.21c-.11-.38-.21-.76-.3-1.12-.2-.73-.41-1.4-.62-2a32.81 32.81 0 0 0-1.23-3.21 14 14 0 0 0-2.12-3.55 3.43 3.43 0 0 0-1-.84c.49 1.59.89 3.16 1.25 4.71s.75 3.08 1.01 4.62ZM409.21 353.54a5 5 0 0 0 2.29-.57 6.84 6.84 0 0 0 1.52-1 13 13 0 0 0 1.65-1.8c.28-.38.57-.8.86-1.26s.55-1 .84-1.53.55-1.17.83-1.83a21.88 21.88 0 0 0 .8-2.14c.42-1.25.79-2.59 1.14-4s.62-2.82.9-4.28c.15-.73.27-1.47.39-2.22l.36-2.25c.11-.75.25-1.51.35-2.28l.33-2.29.36-2.3c.12-.77.23-1.54.35-2.31s.27-1.54.4-2.31.29-1.53.44-2.31c.3-1.54.65-3.09 1.07-4.65s.84-3.11 1.37-4.69a3.41 3.41 0 0 0-1 .81 13.92 13.92 0 0 0-2.23 3.51c-.41.88-.88 1.94-1.32 3.19a52.38 52.38 0 0 0-.99 3.12c-.11.39-.22.79-.34 1.2-.23.83-.45 1.72-.67 2.66-.1.47-.21 1-.32 1.46s-.23 1-.35 1.55c-.22 1.06-.44 2.18-.65 3.37s-.46 2.45-.68 3.79c-.18 1.14-.4 2.2-.6 3.19l-.61 2.82c-.43 1.75-.84 3.28-1.23 4.6s-.82 2.44-1.2 3.42a22.92 22.92 0 0 1-1.12 2.47c-.36.69-.7 1.27-1 1.77a11.43 11.43 0 0 1-1 1.24 18.43 18.43 0 0 1-1.82 1.69c.3-9.4.72-22.39 1.08-33.82s.5-21.3.55-24.46c.66-.46 1.3-1.63 1.81-3.51 1.69-6.19 2.57-11.55 2.53-22.05 0-7.46-1.45-20.33-3.2-31.26-.86-5.47-1.77-10.45-2.47-14.06s-1.19-5.85-1.19-5.85l-.34 5.9c-.22 3.62-.53 8.62-.87 14.08-.68 10.91-1.68 23.66-1.6 31.24.11 10 .84 15.58 2.29 21.8.44 1.93 1 3.15 1.69 3.66-.07 3.16-.31 13-.73 24.45s-1 24.42-1.34 33.81a15.94 15.94 0 0 1-1.7-1.82 10.61 10.61 0 0 1-.89-1.31c-.28-.51-.58-1.12-.89-1.83a23.45 23.45 0 0 1-.93-2.56c-.3-1-.61-2.15-.94-3.49s-.58-2.9-.89-4.67c-.12-.9-.25-1.84-.39-2.86s-.28-2.07-.37-3.22c-.13-1.34-.26-2.61-.41-3.81s-.27-2.32-.42-3.39c-.08-.54-.16-1.05-.24-1.56s-.15-1-.23-1.46c-.15-.95-.32-1.84-.49-2.68-.09-.42-.18-.82-.27-1.21s-.17-.77-.25-1.13c-.17-.73-.35-1.4-.54-2-.37-1.25-.77-2.33-1.13-3.22a13.26 13.26 0 0 0-2-3.56 3.61 3.61 0 0 0-.93-.85c.46 1.58.82 3.14 1.12 4.68s.59 3.1.79 4.63q.15 1.17.3 2.31c.08.77.16 1.55.25 2.31s.13 1.54.2 2.3.13 1.54.2 2.31.11 1.52.17 2.29.13 1.52.19 2.28l.2 2.26c.06.75.13 1.5.22 2.23.18 1.47.37 2.92.58 4.33s.53 2.75.85 4a19.62 19.62 0 0 0 .64 2.19c.22.68.45 1.31.69 1.88s.47 1.12.72 1.59.52.93.77 1.33a12.6 12.6 0 0 0 1.51 1.92 7.14 7.14 0 0 0 1.44 1.13 5.07 5.07 0 0 0 2.24.74 3 3 0 0 0 .85-.05c-.44 11.23-.82 20.51-1.13 34.81a17.3 17.3 0 0 1-1.61-1.67 9.74 9.74 0 0 1-.9-1.3 19.08 19.08 0 0 1-.92-1.82 22.69 22.69 0 0 1-1-2.55c-.32-1-.65-2.16-1-3.5s-.62-2.91-.93-4.69l-.42-2.86c-.13-1-.29-2.09-.38-3.25-.13-1.34-.27-2.61-.42-3.82s-.27-2.34-.42-3.42c-.08-.54-.16-1.05-.24-1.57s-.15-1-.22-1.47c-.15-.95-.31-1.85-.48-2.69-.09-.42-.18-.83-.26-1.23s-.17-.77-.25-1.13a36.851 36.851 0 0 0-1.63-5.31 13.72 13.72 0 0 0-2-3.61 3.55 3.55 0 0 0-.91-.86c.43 1.59.78 3.17 1.07 4.72s.56 3.14.75 4.69c.1.78.19 1.56.28 2.32l.24 2.33c.07.78.13 1.55.2 2.32s.13 1.55.2 2.32.11 1.55.17 2.32.13 1.53.2 2.3l.2 2.27c.07.76.14 1.51.24 2.25.18 1.49.38 3 .6 4.36s.56 2.77.89 4.06c.2.79.43 1.52.66 2.2s.48 1.31.73 1.89.49 1.11.75 1.59a14.17 14.17 0 0 0 .79 1.31 12.6 12.6 0 0 0 1.53 1.91 6.92 6.92 0 0 0 1.47 1.1 5 5 0 0 0 2.25.7 3.64 3.64 0 0 0 .73 0c-.15 7.13-.17 11.74-.17 16.6s.05 10 .35 18.11a14.74 14.74 0 0 1-1.56-1.46 8.92 8.92 0 0 1-1-1.25 19 19 0 0 1-1-1.78 22.62 22.62 0 0 1-1.1-2.52c-.38-1-.74-2.14-1.15-3.47s-.75-2.91-1.13-4.69c-.16-.89-.34-1.85-.52-2.87s-.36-2.1-.5-3.25c-.17-1.36-.35-2.64-.54-3.85s-.33-2.35-.51-3.43c-.09-.55-.19-1.07-.28-1.58s-.17-1-.25-1.48c-.18-1-.35-1.86-.54-2.71-.1-.42-.19-.83-.29-1.23s-.18-.77-.27-1.14c-.19-.74-.37-1.42-.56-2.06a33.93 33.93 0 0 0-1.16-3.27 13.87 13.87 0 0 0-2-3.63 3.46 3.46 0 0 0-.92-.86c.45 1.61.82 3.2 1.13 4.77s.61 3.16.83 4.72c.11.8.22 1.58.33 2.36s.19 1.57.28 2.35.17 1.56.25 2.34.18 1.56.26 2.34.16 1.56.23 2.34.19 1.55.27 2.32l.28 2.3c.09.76.18 1.52.31 2.26.24 1.5.5 3 .78 4.39s.67 2.78 1.06 4.07a25.929 25.929 0 0 0 1.59 4.07 15 15 0 0 0 .83 1.56c.28.47.57.9.85 1.29a12.34 12.34 0 0 0 1.65 1.84 7.52 7.52 0 0 0 1.53 1 4.94 4.94 0 0 0 2.29.56 3.09 3.09 0 0 0 .59-.05c.35 8.12.68 12.47 1.09 16.93s.85 9.05 2.35 17.56a14.38 14.38 0 0 1-1.61-1.15 9.13 9.13 0 0 1-1.13-1.12 18.16 18.16 0 0 1-1.24-1.67 21.88 21.88 0 0 1-1.41-2.4c-.47-1-1-2.07-1.53-3.38s-1-2.85-1.61-4.62c-.28-.89-.53-1.84-.79-2.86s-.55-2.1-.79-3.26c-.29-1.36-.56-2.64-.85-3.86s-.52-2.36-.76-3.44c-.13-.54-.26-1.07-.38-1.58s-.25-1-.37-1.49c-.24-1-.46-1.86-.7-2.71-.13-.42-.24-.83-.36-1.23l-.34-1.14c-.23-.74-.46-1.43-.68-2.07-.44-1.27-.91-2.35-1.32-3.26a15 15 0 0 0-2.21-3.58 3.62 3.62 0 0 0-1-.84c.53 1.62 1 3.21 1.36 4.8s.76 3.19 1.08 4.77c.16.8.32 1.6.47 2.38s.29 1.59.43 2.37.28 1.59.41 2.38l.42 2.37.42 2.37c.13.78.3 1.57.44 2.35l.47 2.32c.17.77.33 1.54.52 2.28.36 1.51.76 3 1.2 4.41s.93 2.77 1.49 4.05c.32.78.67 1.49 1 2.15s.68 1.26 1 1.81.69 1.05 1 1.49.69.84 1 1.19a11.06 11.06 0 0 0 1.87 1.64 6.86 6.86 0 0 0 1.66.82 4.86 4.86 0 0 0 2.35.25l.45-.09a131.76 131.76 0 0 0 4.13 16.87c.65 2.09 1.41 4.15 2.39 6.7a81.13 81.13 0 0 0 4.42 9.32 12.08 12.08 0 0 1-1.72-.55 9.44 9.44 0 0 1-1.46-.73 18.87 18.87 0 0 1-1.69-1.28 19.35 19.35 0 0 1-2.07-2c-.72-.83-1.53-1.81-2.44-3s-1.75-2.64-2.73-4.3c-.46-.85-.93-1.76-1.43-2.74s-1-2-1.45-3.17c-.58-1.33-1.11-2.58-1.6-3.78l-1.37-3.4-.64-1.56c-.2-.5-.4-1-.6-1.46l-1.11-2.68c-.18-.42-.36-.82-.54-1.21l-.5-1.14c-.34-.72-.63-1.39-.95-2-.6-1.25-1.22-2.32-1.74-3.2a15.72 15.72 0 0 0-2.61-3.45 3.68 3.68 0 0 0-1.06-.76c.72 1.62 1.34 3.22 1.91 4.82s1.19 3.2 1.71 4.8c.27.8.55 1.6.82 2.39l.78 2.4c.27.8.53 1.6.8 2.4l.81 2.39c.29.8.57 1.59.86 2.38s.57 1.57.88 2.36l1 2.31c.32.77.61 1.53 1 2.27.74 1.48 1.43 2.93 2.23 4.29a44.32 44.32 0 0 0 2.52 3.82c.54.72 1.08 1.35 1.61 1.94a20.66 20.66 0 0 0 1.61 1.64c.51.45 1 .87 1.46 1.21s.92.65 1.34.91a11.13 11.13 0 0 0 2.35 1.06 6.4 6.4 0 0 0 1.85.28 4.6 4.6 0 0 0 2.3-.51l.29-.17c.49 1 1.08 1.8 1.57 2.63s1 1.6 1.51 2.3l1.42 2c.47.62.94 1.19 1.38 1.75s.85 1.09 1.29 1.58l1.27 1.39c.42.45.8.9 1.22 1.31s.83.81 1.25 1.2l1.24 1.19 1.34 1.13 1.4 1.17c.49.4 1 .76 1.57 1.17l1.72 1.24 2 1.24c1.36.91 3 1.69 4.79 2.66a11.22 11.22 0 0 1-1.56.44 10.31 10.31 0 0 1-1.62.19 12.89 12.89 0 0 1-2.17-.09 21.85 21.85 0 0 1-2.87-.57 29.31 29.31 0 0 1-3.77-1.32 41.69 41.69 0 0 1-4.77-2.47c-.86-.55-1.75-1.19-2.71-1.87a30.45 30.45 0 0 1-2.91-2.34c-1.2-1-2.23-2-3.25-3s-1.9-1.93-2.77-2.82l-1.28-1.32-1.13-1.27-2.14-2.3-.94-1.07-.88-1-1.63-1.8c-1-1.12-1.93-2.05-2.72-2.83a18.12 18.12 0 0 0-3.57-2.95 4.12 4.12 0 0 0-1.24-.55c1.15 1.55 2.26 3.08 3.31 4.6s2.16 3 3.29 4.54c.56.75 1.11 1.5 1.65 2.24s1.16 1.47 1.72 2.21 1.12 1.48 1.72 2.19l1.84 2.12.91 1.05 1 1c.64.68 1.31 1.33 2 2s1.37 1.25 2.05 1.86a26.53 26.53 0 0 0 2.09 1.75 45.57 45.57 0 0 0 4.35 3 31.49 31.49 0 0 0 4.39 2.19c.88.37 1.71.66 2.5.91s1.55.37 2.25.5 1.34.22 1.94.27a13.44 13.44 0 0 0 1.68 0 12.45 12.45 0 0 0 2.57-.43 6.05 6.05 0 0 0 1.69-.79 4.67 4.67 0 0 0 1.6-1.77l.02-.24 2.65 1.19c.86.36 1.7.64 2.5.95 1.58.64 3.09 1.05 4.49 1.48s2.74.72 4 1 2.5.54 3.71.76a96.72 96.72 0 0 0 16.47 1.5 11.38 11.38 0 0 1-1.06 1 10.21 10.21 0 0 1-1.33.9c-.53.29-1.16.59-1.9.91a18.49 18.49 0 0 1-2.7.85 37.9 37.9 0 0 1-3.74.77c-1.47.15-3.15.35-5.11.4h-3.16a34.33 34.33 0 0 1-3.59-.29l-2.18-.24-2.09-.32c-1.35-.24-2.64-.39-3.85-.67l-1.79-.35-1.69-.34c-1.09-.27-2.13-.52-3.11-.74l-1.44-.31-1.33-.37c-.87-.23-1.68-.43-2.46-.61-1.54-.36-2.86-.74-4-1-.58-.13-1.12-.23-1.61-.32s-.93-.19-1.33-.26a14.52 14.52 0 0 0-2-.2 4.19 4.19 0 0 0-1.44.13c2 .81 3.82 1.69 5.7 2.4l2.8 1.12 2.77 1c.92.35 1.82.69 2.74 1l2.74.86c.9.31 1.81.52 2.71.76l2.71.69 2.69.56c.89.18 1.78.36 2.67.48l2.62.34c.87.09 1.74.24 2.58.25 1.71.06 3.37.14 5 .1s3.12-.24 4.57-.44a21.45 21.45 0 0 0 2.43-.53c.75-.2 1.44-.41 2.07-.62a11 11 0 0 0 1.72-.69c.52-.26 1-.51 1.41-.77a12.93 12.93 0 0 0 2-1.53 6.56 6.56 0 0 0 1.13-1.46 4.84 4.84 0 0 0 .68-2.25V523a168.23 168.23 0 0 1 17.91 1.18c5.38.64 10.37 1.46 15.5 2.5-.32.22-.66.44-1 .66s-.87.46-1.41.67a17.83 17.83 0 0 1-1.91.63c-.75.2-1.58.41-2.59.59s-2.15.36-3.47.54-2.84.29-4.56.46l-2.75.19c-1 0-2 .16-3.1.19-1.28.05-2.49.16-3.63.28s-2.21.2-3.22.35l-1.47.23-1.37.23q-1.32.27-2.49.54c-.38.1-.74.19-1.2.28l-1.25.27c-.8.17-1.54.35-2.25.54-1.39.39-2.62.73-3.65 1a20.25 20.25 0 0 0-4.2 1.8 3.87 3.87 0 0 0-1.07.83c1.92-.23 3.72-.58 5.52-.78s3.56-.52 5.3-.72l1.31-.15c.43 0 .89-.1 1.2-.16l2.11-.28c.7-.1 1.4-.16 2.11-.22l2.12-.19c.71-.07 1.42-.08 2.13-.12s1.42-.1 2.13-.14l2.11-.09c.7 0 1.41-.06 2.1-.11 1.39-.07 2.76-.17 4.09-.27s2.63-.28 3.88-.47a21 21 0 0 0 2.14-.38c.67-.15 1.29-.32 1.87-.48s1.12-.31 1.61-.5.94-.38 1.36-.58a16 16 0 0 0 2.07-1.21 7.64 7.64 0 0 0 1.32-1.25 5.31 5.31 0 0 0 1.07-2c2.86.58 6.13 1.37 9.68 2.29s7.33 2.08 11.2 3.42a120.81 120.81 0 0 1 22.55 10.2 70.29 70.29 0 0 1 9.09 6.37 47.36 47.36 0 0 1 6.26 6.35 32 32 0 0 1 1.94 2.77c.25.42.5.81.72 1.17s.36.71.52 1c.29.62.56 1.09.68 1.43l.19.51a6.5 6.5 0 0 0 .69 1.37 5.38 5.38 0 0 0 .76 1.09 2 2 0 0 0 1.76.82c.57-.12 1-.7 1.12-1.59a5.37 5.37 0 0 0 .05-1.52 9.24 9.24 0 0 0-.47-1.72s-.09-.21-.24-.61-.46-1-.81-1.67c-.19-.36-.37-.77-.62-1.19l-.83-1.34a36.66 36.66 0 0 0-2.22-3.12 52.09 52.09 0 0 0-6.9-6.9 74 74 0 0 0-9.66-6.66A125.08 125.08 0 0 0 537.11 529c-4-1.34-7.86-2.44-11.48-3.41s-7-1.7-9.89-2.27a4.83 4.83 0 0 0-.21-2.28 7.07 7.07 0 0 0-.78-1.68 12.64 12.64 0 0 0-1.6-1.91c-.35-.33-.74-.68-1.18-1s-.93-.7-1.46-1.06-1.15-.7-1.8-1.06a23.7 23.7 0 0 0-2.14-1.07c-1.27-.56-2.64-1.07-4.06-1.57s-2.93-.85-4.47-1.26c-.76-.2-1.54-.36-2.33-.52l-2.38-.49c-.81-.15-1.62-.31-2.43-.44s-1.62-.29-2.45-.4l-2.48-.38c-.82-.14-1.66-.24-2.5-.35l-2.51-.37c-.45-.06-.76-.13-1.1-.2l-1-.21a27.23 27.23 0 0 1-4-1.09 23.7 23.7 0 0 1-3.81-1.57 3.37 3.37 0 0 0 .58 1 9.8 9.8 0 0 0 2.84 2.35 16.37 16.37 0 0 0 2.75 1.36c.56.22 1.16.43 1.81.65l1 .32c.33.11.76.22 1.22.33.89.21 1.84.42 2.84.62l1.55.33 1.64.36 3.54.73 3.95.85c1.18.25 2.28.51 3.3.8s2 .56 2.89.83c1.78.59 3.3 1.17 4.63 1.69s2.41 1.12 3.36 1.62a17.71 17.71 0 0 1 2.37 1.45c.65.46 1.19.88 1.64 1.27a9.69 9.69 0 0 1 1.1 1.16c.28.35.51.68.73 1-5.23-1-10.32-1.82-15.82-2.43a174.15 174.15 0 0 0-18.28-1.07v-.06a5.28 5.28 0 0 0-.63-2.28 7.49 7.49 0 0 0-1-1.51 13.18 13.18 0 0 0-1.73-1.62c-.35-.28-.75-.56-1.17-.84s-.89-.58-1.4-.87-1.05-.59-1.63-.88-1.21-.58-1.88-.87c-1.09-.51-2.23-1-3.4-1.41s-2.33-.93-3.52-1.36c-.6-.21-1.17-.48-1.76-.7l-1.77-.7c-.59-.23-1.14-.55-1.71-.78l-1.71-.77-1.61-.9a16.24 16.24 0 0 1-1.58-.91l-1.49-1a15.06 15.06 0 0 1-1.4-1.1c-.45-.38-.89-.77-1.33-1.17s-.79-.87-1.17-1.32a15.91 15.91 0 0 1-2-2.89 3.13 3.13 0 0 0-.09 1.1 6.28 6.28 0 0 0 .21 1.36c.07.27.15.57.26.89s.28.62.46 1a13.64 13.64 0 0 0 1.49 2.32c.33.41.71.83 1.13 1.27l.66.69.77.67c.54.45 1.13.93 1.77 1.42.34.22.69.44 1 .68l1.13.72a22.58 22.58 0 0 0 2.6 1.39l1.46.73 1.61.65c1 .35 1.82.8 2.69 1.09s1.67.62 2.43.93c1.52.63 2.9 1.09 4.09 1.6s2.24.91 3.14 1.33 1.66.84 2.33 1.18 1.22.68 1.7 1a10.19 10.19 0 0 1 1.22 1 13.51 13.51 0 0 1 1 1 92.8 92.8 0 0 1-15.93-1.33c-1.17-.2-2.36-.39-3.58-.7s-2.51-.53-3.84-1-2.79-.78-4.3-1.37c-.76-.29-1.56-.55-2.37-.89l-2.53-1.11.08-.18a5.36 5.36 0 0 0 .4-2.3 8.07 8.07 0 0 0-.21-1.78 13.51 13.51 0 0 0-.73-2.17l-.58-1.24a15.16 15.16 0 0 0-.72-1.37c-.27-.48-.57-1-.9-1.46s-.64-1.08-1-1.63c-.65-.86-1.26-1.82-1.91-2.76s-1.31-1.89-2-2.83c-.34-.45-.63-1-1-1.47s-.67-1-1-1.49-.59-1.06-.91-1.57l-.46-.77-.43-.82-.82-1.63c-.26-.55-.5-1.14-.75-1.71s-.49-1.12-.68-1.74-.38-1.2-.57-1.81a30.4 30.4 0 0 1-.85-3.77 32.83 32.83 0 0 1-.35-4 3.34 3.34 0 0 0-.63 1 10.69 10.69 0 0 0-.8 3.55 25.93 25.93 0 0 0 .08 2.95 13.25 13.25 0 0 0 .25 1.79c.07.31.14.63.21 1s.14.69.22 1.05c.18.71.43 1.43.69 2.21.14.39.28.78.42 1.19l.52 1.23a22.39 22.39 0 0 0 1.28 2.61 24.31 24.31 0 0 0 1.65 2.8c.56.79 1 1.63 1.53 2.3s1 1.4 1.41 2c.94 1.22 1.68 2.42 2.47 3.34s1.31 1.9 1.9 2.62a23.33 23.33 0 0 1 1.41 2.08c.38.63.73 1.13 1 1.63a13.55 13.55 0 0 1 .63 1.39c.2.53.35 1 .49 1.51-1.7-.91-3.26-1.63-4.55-2.49l-1.88-1.15-1.63-1.16c-.52-.38-1-.72-1.49-1.09l-1.34-1.1-1.27-1.05-1.19-1.12-1.19-1.13c-.4-.38-.76-.81-1.16-1.23l-1.22-1.32c-.42-.45-.8-1-1.23-1.49s-.88-1.06-1.33-1.65l-1.33-2.08c-.5-.67-1-1.4-1.46-2.19s-1-1.59-1.53-2.51l.29-.16a5.4 5.4 0 0 0 1.66-1.67 7.36 7.36 0 0 0 .82-1.59 16.28 16.28 0 0 0 .59-2.24c.09-.44.16-.91.22-1.41s.08-1 .1-1.6 0-1.17 0-1.82a18.06 18.06 0 0 0-.09-2c-.1-1.18-.18-2.43-.34-3.68s-.34-2.55-.52-3.87l-.27-2-.3-2c-.1-.68-.14-1.39-.24-2.07s-.18-1.38-.26-2.07-.13-1.41-.18-2.11l-.18-2.11c0-.71-.05-1.43-.07-2.14v-2.15c0-1.44.11-2.91.24-4.37s.36-3 .65-4.46a3.32 3.32 0 0 0-.83.88 12.13 12.13 0 0 0-1.67 3.55 29 29 0 0 0-.74 3.14c-.11.62-.22 1.28-.29 2 0 .35-.06.71-.09 1.09s-.06.76-.09 1.16c-.05.8-.11 1.67-.09 2.56v2.87c0 1 .13 2.06.22 3.19s.21 2.31.39 3.54c.17 1.05.24 2.07.39 3s.25 1.82.35 2.66c.19 1.65.38 3.1.5 4.39s.23 2.39.28 3.37.09 1.81.08 2.57-.05 1.39-.11 2a11.6 11.6 0 0 1-.23 1.5c-.15.62-.32 1.16-.49 1.69a76.61 76.61 0 0 1-4.34-9c-1-2.46-1.72-4.46-2.37-6.49a128.19 128.19 0 0 1-4.17-16.52 3.35 3.35 0 0 0 .45-.07 5.16 5.16 0 0 0 2.11-1 7 7 0 0 0 1.27-1.28 14.94 14.94 0 0 0 1.25-2c.21-.42.41-.87.61-1.36a16.38 16.38 0 0 0 .54-1.59c.16-.57.35-1.2.51-1.86s.32-1.39.44-2.15c.19-1.25.38-2.56.53-3.92s.2-2.74.31-4.16c0-.71.08-1.42.11-2.14s.06-1.45.1-2.18.09-1.47.11-2.2.07-1.47.1-2.21l.15-2.23.15-2.23c.07-.74.15-1.49.22-2.24l.27-2.24c.19-1.5.47-3 .78-4.52s.69-3 1.15-4.56a3.49 3.49 0 0 0-.93.82 12.48 12.48 0 0 0-2.05 3.48 33.11 33.11 0 0 0-1.13 3.15c-.19.62-.37 1.28-.53 2q-.12.54-.24 1.11c-.09.39-.17.78-.26 1.19-.16.81-.32 1.69-.45 2.61-.07.47-.13.94-.2 1.43s-.13 1-.2 1.53c-.13 1.05-.24 2.15-.32 3.31s-.2 2.41-.27 3.72c0 1.11-.12 2.16-.19 3.14s-.15 1.92-.22 2.79c-.17 1.73-.38 3.26-.53 4.59s-.41 2.47-.62 3.47-.42 1.83-.63 2.57-.45 1.36-.67 1.9a12.72 12.72 0 0 1-.71 1.39 15.52 15.52 0 0 1-1.1 1.61c-1.54-8.38-1.95-12.93-2.44-17.34s-.81-8.73-1.22-16.79a3.82 3.82 0 0 0 .59 0 5 5 0 0 0 2.23-.75 7.06 7.06 0 0 0 1.44-1.12 14.16 14.16 0 0 0 1.51-1.89c.25-.4.51-.83.77-1.3s.49-1 .74-1.56.47-1.17.71-1.83.48-1.38.68-2.15c.34-1.25.64-2.57.92-3.94s.49-2.79.71-4.23c.11-.71.2-1.45.3-2.18l.28-2.21.27-2.24.27-2.26.3-2.26.3-2.27.36-2.27c.14-.75.27-1.51.41-2.27.28-1.52.62-3 1-4.57s.82-3 1.36-4.59a3.61 3.61 0 0 0-1 .79 13 13 0 0 0-2.21 3.45 33.85 33.85 0 0 0-1.29 3.14c-.22.62-.44 1.28-.65 2-.09.36-.2.73-.3 1.11s-.22.78-.33 1.19c-.21.82-.42 1.7-.62 2.63-.09.47-.19.95-.29 1.44l-.3 1.53c-.2 1.05-.39 2.17-.56 3.35s-.38 2.42-.56 3.74c-.13 1.13-.32 2.19-.47 3.18l-.48 2.8c-.36 1.74-.67 3.26-1 4.59s-.69 2.46-1 3.44a20.3 20.3 0 0 1-1 2.51 19.35 19.35 0 0 1-.9 1.82 9.75 9.75 0 0 1-.88 1.3 16 16 0 0 1-1.43 1.57c-.36-8.09-.44-13.18-.49-18s-.05-9.44 0-16.56a3.76 3.76 0 0 0 .72.06 5 5 0 0 0 2.27-.62 7 7 0 0 0 1.51-1 12.81 12.81 0 0 0 1.79-2.04q.42-.57.84-1.26c.28-.46.54-1 .81-1.54s.54-1.16.81-1.82.54-1.36.77-2.13c.4-1.26.77-2.58 1.1-3.95s.59-2.81.87-4.26c.14-.72.26-1.46.37-2.2l.35-2.23c.12-.75.25-1.51.35-2.26l.33-2.28.36-2.28.36-2.29c.13-.76.27-1.52.41-2.29s.29-1.52.45-2.29c.3-1.52.67-3.06 1.09-4.6s.87-3.07 1.42-4.63a3.61 3.61 0 0 0-1 .79 13.37 13.37 0 0 0-2.26 3.45c-.42.87-.89 1.93-1.34 3.16-.23.62-.45 1.29-.68 2q-.17.54-.33 1.11c-.11.39-.23.79-.35 1.2-.23.83-.46 1.7-.67 2.64q-.17.71-.33 1.44c-.11.51-.23 1-.35 1.54-.22 1.06-.44 2.18-.65 3.36s-.45 2.44-.67 3.76c-.17 1.14-.39 2.19-.58 3.19s-.41 1.93-.59 2.8c-.42 1.75-.8 3.26-1.18 4.59s-.8 2.44-1.16 3.41a23.91 23.91 0 0 1-1.08 2.49c-.35.69-.68 1.27-1 1.77a13.27 13.27 0 0 1-1 1.26 17.48 17.48 0 0 1-1.66 1.6c.2-14.27.52-23.55.87-34.77a3 3 0 0 0 .93.06Z" class="cls-1"/><path d="M412.41 315.52a10.69 10.69 0 0 1-1 1.25 20.61 20.61 0 0 1-1.85 1.73 2.8 2.8 0 0 0 .88.1 5 5 0 0 0 2.28-.58 7.16 7.16 0 0 0 1.52-1 12.64 12.64 0 0 0 1.63-1.82c.28-.38.57-.81.85-1.27s.55-1 .83-1.55.55-1.17.82-1.84a20.83 20.83 0 0 0 .78-2.16c.4-1.27.76-2.61 1.1-4s.57-2.84.83-4.32c.14-.73.25-1.48.36-2.23l.32-2.27c.1-.77.23-1.53.31-2.3s.19-1.54.29-2.32.21-1.54.31-2.32l.3-2.33c.12-.77.23-1.56.35-2.34l.39-2.33c.26-1.56.57-3.13.94-4.71s.76-3.15 1.25-4.76a3.43 3.43 0 0 0-.95.84 14.67 14.67 0 0 0-2.12 3.59c-.39.9-.83 2-1.24 3.24-.21.64-.41 1.32-.61 2.05l-.3 1.14-.32 1.22c-.21.84-.41 1.73-.6 2.68-.1.48-.19 1-.29 1.47s-.21 1-.32 1.57c-.2 1.07-.4 2.2-.59 3.4s-.41 2.47-.61 3.81c-.16 1.15-.37 2.22-.56 3.23s-.37 1.95-.56 2.84c-.41 1.76-.8 3.29-1.18 4.63s-.8 2.46-1.16 3.44a25.92 25.92 0 0 1-1.1 2.49c-.33.65-.66 1.21-.98 1.73ZM395.26 281.38l.34 2.29.3 2.29c.09.76.17 1.52.26 2.28l.24 2.28c.07.76.14 1.52.22 2.28s.16 1.51.23 2.26l.23 2.24c.08.74.16 1.48.26 2.21.21 1.46.41 2.9.65 4.29s.55 2.73.89 4a22.51 22.51 0 0 0 .66 2.18c.23.67.47 1.29.71 1.86a16.75 16.75 0 0 0 .74 1.58c.26.48.52.91.77 1.31a13.12 13.12 0 0 0 1.52 1.91 6.68 6.68 0 0 0 1.45 1.11 4.9 4.9 0 0 0 2.24.73 2.87 2.87 0 0 0 .88-.05 19.29 19.29 0 0 1-1.73-1.83 10.61 10.61 0 0 1-.89-1.31 19.35 19.35 0 0 1-.9-1.82 21.87 21.87 0 0 1-1-2.54c-.31-1-.63-2.14-1-3.47s-.62-2.88-.95-4.65c-.13-.88-.28-1.82-.43-2.83s-.31-2.07-.42-3.21c-.14-1.33-.31-2.58-.48-3.78s-.31-2.31-.48-3.37c-.1-.53-.18-1-.27-1.54s-.18-1-.26-1.45c-.18-.94-.36-1.82-.56-2.65-.1-.41-.19-.81-.29-1.2l-.28-1.12c-.19-.72-.39-1.38-.59-2a31.9 31.9 0 0 0-1.22-3.17 13.1 13.1 0 0 0-2.12-3.48 3.49 3.49 0 0 0-.95-.81c.5 1.55.91 3.08 1.25 4.6s.72 3.07.98 4.58ZM542.14 331.4a1.67 1.67 0 1 0-2.36 0 1.65 1.65 0 0 0 2.36 0Zm-1.56-2.22c0 .38 0 .76.47.79s.54-.3.57-.66a1.08 1.08 0 0 1 .39 1.33 1.11 1.11 0 0 1-1.18.67 1.11 1.11 0 0 1-.25-2.13ZM542.17 358.15a23 23 0 0 1-1.13-6.21 7.93 7.93 0 0 0 1.13 6.21ZM539.86 352.29a10.29 10.29 0 0 0 .74 7c-.18-1.22-.4-2.38-.52-3.55s-.15-2.3-.22-3.45ZM543.44 357.32c-.36-1.88-.72-3.72-1.08-5.59-.46 1.54.13 4.59 1.08 5.59ZM552.59 355.8a65.37 65.37 0 0 1 7.45 2.79c.82.41 1.61.86 2.42 1.3a.28.28 0 0 0-.05-.08l-.21-.21a18.55 18.55 0 0 0-7.89-4.41c-2.24-.58-4.51-1.06-6.78-1.58l-.83-.19a.69.69 0 0 0 .3.22c1.86.73 3.71 1.5 5.59 2.16ZM602.74 410.78a61.79 61.79 0 0 1 7.45 2.79c.81.4 1.6.86 2.42 1.29a.56.56 0 0 0-.05-.08l-.21-.2a18.4 18.4 0 0 0-7.89-4.41c-2.24-.59-4.52-1.07-6.78-1.59l-.83-.19a.66.66 0 0 0 .3.23c1.85.72 3.71 1.49 5.59 2.16ZM592.31 413.12a23.29 23.29 0 0 1-1.12-6.2 8 8 0 0 0 1.12 6.2ZM590 407.27a10.2 10.2 0 0 0 .74 7c-.18-1.21-.4-2.37-.52-3.54s-.14-2.32-.22-3.46ZM592.29 386.37a1.67 1.67 0 0 0 0-2.36 1.7 1.7 0 0 0-2.37 0 1.67 1.67 0 0 0 0 2.36 1.65 1.65 0 0 0 2.37 0Zm-1.56-2.21c0 .38 0 .75.47.79s.53-.3.57-.66a1.08 1.08 0 0 1 .39 1.33 1.11 1.11 0 0 1-1.18.66 1.1 1.1 0 0 1-.25-2.12ZM593.59 412.29c-.36-1.88-.72-3.71-1.08-5.59-.46 1.54.13 4.59 1.08 5.59ZM493.29 302.34c-.36-1.88-.72-3.71-1.08-5.59-.45 1.54.13 4.6 1.08 5.59ZM489.71 297.32a10.29 10.29 0 0 0 .74 7c-.18-1.22-.4-2.38-.52-3.55s-.15-2.31-.22-3.45ZM492 303.17a22.92 22.92 0 0 1-1.13-6.2 7.91 7.91 0 0 0 1.13 6.2ZM492 276.42a1.67 1.67 0 0 0 .05-2.36 1.7 1.7 0 0 0-2.37 0 1.67 1.67 0 0 0 0 2.36 1.65 1.65 0 0 0 2.32 0Zm-1.56-2.21c0 .38 0 .75.47.79s.54-.3.57-.66a1.07 1.07 0 0 1 .39 1.33 1.13 1.13 0 0 1-1.18.67 1.1 1.1 0 0 1-.95-.92 1.07 1.07 0 0 1 .69-1.21Z" class="cls-1"/><path d="M447.5 445.24c0 12.6 4.59 21.24 14.42 27.19 9.15 5.48 21.87 8.17 34.19 10.77 19 4.07 38.72 8.29 53.88 21.4 15.12-13.08 34.75-17.3 53.75-21.38l.23-.05a204 204 0 0 0 22.7-5.68 57 57 0 0 0 11.33-5.05c9.89-6 14.49-14.6 14.49-27.2v-213.3H591l-.84.88c-.87.9-1.83 1.85-2.85 2.82h61.48v168.28L494.64 235.64h18.06c-1-1-2-1.92-2.85-2.82l-.84-.88H447.5Zm172.39-29.07c-.43-.35-.88-.68-1.3-1a1.39 1.39 0 0 1-.2-.36c.15 0 .31-.1.43-.06 1.11.35 2.22.73 3.32 1.1a.26.26 0 0 0 .24 0l-3.53-1.85c.11-.26.21-.47.3-.68h.08a15.55 15.55 0 0 0 5.8 1.38q1.2.12 2.4.3c.15 0 .38.15.4.25a.6.6 0 0 1-.19.49 38.29 38.29 0 0 1-3.35 2.17 16.7 16.7 0 0 0-6.63 6.57c-.52.91-1.19 1.74-1.8 2.6a1.94 1.94 0 0 1-.33.37.35.35 0 0 1-.62-.26q-.15-1.51-.27-3A16.58 16.58 0 0 0 614 420c-.14-.42-.32-.83-.51-1.28l1-.52c.33 1.21.65 2.39 1 3.57h.09c0-.47-.09-.93-.14-1.39-.08-.74-.15-1.49-.25-2.24 0-.25 0-.4.34-.45.63 1.24 1.26 2.5 1.89 3.76h.06c0-.13-.07-.26-.11-.39-.38-1.16-.75-2.33-1.11-3.49a1.55 1.55 0 0 1 0-.48h.16c.86 1.12 1.73 2.23 2.59 3.34h.08a3.24 3.24 0 0 0-.17-.32c-.58-1.06-1.18-2.11-1.75-3.17a1.33 1.33 0 0 1-.08-.45h.15l3.28 2.86.06-.05-1.24-1.49c-.44-.52-.89-1-1.32-1.56a1.63 1.63 0 0 1-.18-.45 1.35 1.35 0 0 1 .46.1c1 .58 2.08 1.18 3.11 1.77a.52.52 0 0 0 .33.1Zm-14.95-31.59c.61-.13 1.22-.28 1.84-.37a5.68 5.68 0 0 1 5.64 2.48 19 19 0 0 1 3 6.5 27.37 27.37 0 0 1 1.16 9.52 8.08 8.08 0 0 1-.11.86c-.14.73-.4.92-1.2.84 0-.2-.11-.41-.17-.65l.46-.2v-.06h-.49c0-.12-.06-.25-.11-.43l.8-.31v-.07l-.83.12c0-.14-.07-.25-.1-.4l1-.42v-.06l-1.07.18c0-.14-.06-.25-.1-.41l1.08-.42v-.07l-1.14.18c-.05-.18-.09-.35-.14-.55l1.41-.55v-.06l-1.47.26-.12-.43 1.39-.54v-.07l-1.46.25c0-.16-.09-.31-.13-.49l1.48-.58v-.08l-1.55.28c0-.15-.09-.29-.16-.48l1.58-.62v-.09l-1.66.3c-.06-.13-.1-.25-.17-.42l1.82-.7v-.08l-1.95.35c-.06-.16-.11-.3-.19-.49l1.94-.74v-.07c-.54.09-1.09.16-1.62.3s-.59 0-.64-.47l2-.78v-.09l-1.75.32c-.51.09-.51.09-.7-.46l2.14-.83v-.1c-.65.12-1.31.22-2 .37-.36.08-.56 0-.63-.42l2.37-.91v-.08l-2.12.38c-.57.11-.57.11-.82-.5l2.62-1v-.08l-1.17.21c-.43.08-.86.13-1.27.24s-.7 0-.79-.46l2.73-1v-.08c-.86.16-1.74.29-2.59.49-.44.1-.7 0-.84-.48l3-1.14v-.06c-1 .18-2 .35-3 .56a.54.54 0 0 1-.72-.41l3-1.14v-.08c-1 .18-2 .34-3 .56a.63.63 0 0 1-.83-.41l2.86-1.1v-.1l-1.11.21c-.6.11-1.21.19-1.8.33a.64.64 0 0 1-.85-.39l3-1.13v-.08l-1.81.33c-.43.08-.86.13-1.27.25a.76.76 0 0 1-.91-.4l2.72-1.05v-.08l-1.14.21-1.11.2c-1.23.22-1.28.21-2.18-.75a2.22 2.22 0 0 1-.05-.11Zm-23.56-.39c.08-.05.32 0 .42.14a7.94 7.94 0 0 1 1.67 2.42 4.14 4.14 0 0 0 .37.69c.07.11.31.22.35.19s.27-.3.24-.42a6.16 6.16 0 0 0-.39-1.35 13.52 13.52 0 0 0-2.08-3.11c-.38-.44-.37-.54 0-1a3.15 3.15 0 0 1 1.71-.89 9.39 9.39 0 0 1 1.57-.21 36.18 36.18 0 0 1 12.23 1.58 21.7 21.7 0 0 1 10.42 7.1 27.39 27.39 0 0 1 5.23 10.74c.53 2.12 1.06 4.24 1.71 6.32a19.79 19.79 0 0 0 3 5.72.7.7 0 0 1 .11.75 7.32 7.32 0 0 1-3.64 4c-.44.24-.88.47-1.34.67a.5.5 0 0 1-.43 0 23.09 23.09 0 0 0-8.09-3.71c-2-.6-4.07-1.22-6.07-1.95a23.38 23.38 0 0 1-3.07-1.57 1 1 0 0 1-.39-.45c-.52-1.08-1-2.16-1.52-3.24h-.07c.39 1.36.7 2.75 1.18 4.07a3 3 0 0 1-.87 3.51 27 27 0 0 1-2.74 2.15c-.63.44-1.32.1-1.58-.71a13.05 13.05 0 0 1-.62-5.88c.18-1.27.47-2.51.74-3.76a.73.73 0 0 0-.19-.74 30.9 30.9 0 0 1-6.23-10.59.5.5 0 0 1 0-.16.84.84 0 0 1 .14 0 8.39 8.39 0 0 0 8.95.17 14.16 14.16 0 0 0 4.34-3.59l.11-.16c-1.19.79-2.34 1.64-3.58 2.34a8.71 8.71 0 0 1-6.41 1.17 11.66 11.66 0 0 1-2.59-1 3.93 3.93 0 0 1-2-2.67 28.87 28.87 0 0 1-.8-6.15.54.54 0 0 1 .21-.42Zm24.74 32.4a42.31 42.31 0 0 1-6.38 1.43c-.69.09-1-.13-1.07-.83-.21-1.41-.41-2.83-.62-4.33.4.16.76.28 1.1.45.08 0 .11.23.13.36.14 1 .27 1.92.48 2.87l.3-2.87c.46 0 .69.2.72.67.05.67.18 1.34.27 2h.1c.08-.74.16-1.48.25-2.26.76.14.76.14.86.83a8.61 8.61 0 0 0 .26 1.4c.06-.61.13-1.22.2-1.88a4.3 4.3 0 0 1 .69.21.46.46 0 0 1 .2.31 7 7 0 0 0 .25 1.17c0-.43.09-.85.13-1.27.84 0 1 .13 1.22 1 0-.22.07-.43.12-.71l1.33.39c.09.6-.07.92-.54 1.06Zm-36.38-55.39c-.43-.35-.87-.69-1.3-1.05a1.17 1.17 0 0 1-.19-.35c.14 0 .3-.11.42-.07l3.32 1.1a.26.26 0 0 0 .24 0L568.7 359c.12-.26.21-.48.3-.69h.08a15.36 15.36 0 0 0 5.8 1.38q1.22.13 2.4.3c.15 0 .39.15.4.26a.57.57 0 0 1-.19.48 38.4 38.4 0 0 1-3.35 2.18 16.7 16.7 0 0 0-6.63 6.57c-.52.91-1.19 1.74-1.8 2.6a2.3 2.3 0 0 1-.33.37.35.35 0 0 1-.62-.26q-.15-1.52-.27-3a16.66 16.66 0 0 0-.67-4.15c-.14-.42-.32-.82-.5-1.28l1-.51c.33 1.21.65 2.39 1 3.57h.1l-.15-1.38c-.08-.75-.15-1.5-.25-2.24 0-.25 0-.41.35-.45l1.88 3.76h.06c0-.13-.07-.26-.11-.38-.37-1.17-.75-2.33-1.11-3.5a1.48 1.48 0 0 1 0-.47h.16l2.6 3.34h.08c-.06-.11-.12-.22-.17-.33-.59-1.05-1.18-2.11-1.76-3.17a1.5 1.5 0 0 1-.08-.44l.15-.05 3.28 2.86.06-.05c-.41-.49-.82-1-1.24-1.48s-.89-1-1.32-1.57a1.84 1.84 0 0 1-.18-.45 2.3 2.3 0 0 1 .47.1c1 .58 2.07 1.18 3.1 1.78a.71.71 0 0 0 .33.1c-.64-.65-1.23-1.13-1.83-1.6Zm-15-31.6c.61-.13 1.22-.28 1.84-.37a5.67 5.67 0 0 1 5.64 2.49 18.93 18.93 0 0 1 3 6.5 27.59 27.59 0 0 1 1.17 9.51q0 .43-.12.87c-.13.72-.4.91-1.2.83 0-.2-.11-.41-.17-.64l.46-.21v-.05h-.5c0-.13-.06-.26-.11-.43l.8-.32v-.07l-.83.12c0-.13-.06-.25-.1-.4l1-.41v-.07l-1.07.19-.1-.42 1.08-.42v-.07l-1.14.18c0-.18-.09-.34-.14-.54l1.41-.55v-.07l-1.46.27-.13-.44 1.39-.53v-.08l-1.47.26c0-.17-.08-.32-.13-.49l1.48-.58v-.08l-1.55.27-.16-.48 1.58-.61v-.09l-1.66.3-.17-.43 1.82-.7v-.08l-1.95.35c-.06-.15-.11-.29-.18-.48l1.93-.75v-.07c-.54.1-1.09.16-1.62.3s-.59 0-.64-.46l2-.78v-.09l-1.75.31c-.51.1-.51.1-.7-.46l2.14-.83v-.09c-.65.12-1.31.21-2 .36-.35.09-.56 0-.63-.42l2.37-.91v-.08l-2.12.39c-.57.1-.57.1-.82-.5l2.63-1v-.08l-1.17.21c-.43.08-.86.13-1.27.25s-.7 0-.79-.46l2.73-1.05v-.07c-.86.16-1.73.29-2.59.49-.44.1-.7 0-.84-.48l3-1.14v-.07c-1 .19-2 .35-3 .56a.54.54 0 0 1-.73-.4l3-1.14v-.08c-1 .18-2 .34-3 .55a.63.63 0 0 1-.83-.41l2.86-1.09v-.1l-1.11.2c-.6.11-1.21.19-1.8.34a.65.65 0 0 1-.85-.39l3-1.14v-.08l-1.82.34a10.55 10.55 0 0 0-1.27.24.74.74 0 0 1-.91-.4l2.72-1v-.08l-1.14.2-1.11.21c-1.23.22-1.27.2-2.18-.76a2.22 2.22 0 0 1 .03-.12Zm-23.56-.38c.08-.05.32 0 .42.14a7.82 7.82 0 0 1 1.67 2.42 4.58 4.58 0 0 0 .37.69c.07.1.31.22.35.18s.27-.29.24-.42a6.32 6.32 0 0 0-.39-1.35 13.46 13.46 0 0 0-2.08-3.1c-.38-.44-.37-.54 0-1a3.24 3.24 0 0 1 1.71-.9 9.37 9.37 0 0 1 1.57-.2 36.14 36.14 0 0 1 12.23 1.57 21.79 21.79 0 0 1 10.43 7.11 27.44 27.44 0 0 1 5.3 10.77c.53 2.11 1.06 4.23 1.71 6.31a19.9 19.9 0 0 0 3 5.72.72.72 0 0 1 .11.76 7.32 7.32 0 0 1-3.64 4c-.44.23-.88.47-1.34.67a.5.5 0 0 1-.43 0 23.18 23.18 0 0 0-8.09-3.71c-2-.59-4.07-1.22-6.06-1.95a24 24 0 0 1-3.08-1.56 1 1 0 0 1-.39-.46c-.52-1.07-1-2.16-1.52-3.24h-.07c.39 1.36.7 2.75 1.18 4.08a3 3 0 0 1-.86 3.5 28.71 28.71 0 0 1-2.75 2.16c-.63.44-1.31.1-1.58-.71a13.24 13.24 0 0 1-.62-5.89c.18-1.26.47-2.51.74-3.76a.69.69 0 0 0-.19-.73 30.85 30.85 0 0 1-6.23-10.6.49.49 0 0 1 0-.15.42.42 0 0 1 .14 0c3 1.89 5.94 1.74 9 .18a14.31 14.31 0 0 0 4.34-3.59 1 1 0 0 0 .11-.17c-1.19.8-2.34 1.64-3.58 2.35a8.74 8.74 0 0 1-6.41 1.17 11.89 11.89 0 0 1-2.59-1 3.92 3.92 0 0 1-2-2.66 28.34 28.34 0 0 1-.81-6.15.57.57 0 0 1 .14-.48ZM556 361.61a42.31 42.31 0 0 1-6.38 1.43c-.69.09-1-.12-1.07-.82-.21-1.42-.4-2.83-.62-4.33.4.16.76.27 1.1.44.08 0 .12.24.13.37.14.95.27 1.91.48 2.87l.3-2.87c.46 0 .69.19.72.66 0 .68.18 1.34.27 2h.1c.08-.75.16-1.49.25-2.26.76.13.76.13.86.83a10 10 0 0 0 .26 1.39c.07-.61.13-1.22.2-1.87a5.67 5.67 0 0 1 .69.2.51.51 0 0 1 .2.31 7 7 0 0 0 .25 1.17c0-.42.09-.84.13-1.26.85 0 .95.12 1.22 1 0-.21.07-.43.12-.71l1.33.4c.06.6-.1.92-.54 1.05Zm-36.38-55.39c-.43-.35-.87-.68-1.3-1a1.37 1.37 0 0 1-.19-.36c.14 0 .3-.1.42-.06 1.11.35 2.22.73 3.33 1.1a.24.24 0 0 0 .23 0l-3.55-1.9.29-.68h.09a15.27 15.27 0 0 0 5.8 1.38q1.2.12 2.4.3c.15 0 .38.15.4.25a.61.61 0 0 1-.2.49 38.29 38.29 0 0 1-3.34 2.16 16.61 16.61 0 0 0-6.62 6.57c-.53.91-1.2 1.74-1.8 2.6a2 2 0 0 1-.34.37.35.35 0 0 1-.62-.26q-.15-1.51-.27-3a16.58 16.58 0 0 0-.67-4.14c-.14-.42-.32-.83-.5-1.28l1-.52c.33 1.21.66 2.39 1 3.58h.1l-.15-1.39c-.08-.74-.15-1.49-.24-2.24 0-.25 0-.4.34-.45l1.88 3.76h.06c0-.13-.07-.26-.11-.39-.37-1.16-.75-2.33-1.11-3.49a1.55 1.55 0 0 1 0-.48h.15c.86 1.12 1.73 2.23 2.6 3.34h.08c-.06-.11-.11-.22-.17-.32-.59-1.06-1.18-2.11-1.76-3.17a1.63 1.63 0 0 1-.08-.44l.15-.05 3.28 2.86.06-.05-1.26-1.62c-.44-.52-.89-1-1.32-1.56a2 2 0 0 1-.18-.45 1.4 1.4 0 0 1 .47.1c1 .58 2.07 1.18 3.11 1.77a.49.49 0 0 0 .32.1Zm-15-31.59c.62-.13 1.22-.28 1.84-.37a5.67 5.67 0 0 1 5.64 2.48 19 19 0 0 1 3 6.5 27.62 27.62 0 0 1 1.17 9.52 8.66 8.66 0 0 1-.12.87c-.13.72-.4.91-1.2.83 0-.2-.11-.41-.17-.65l.46-.2v-.06h-.5c0-.12-.06-.25-.11-.43l.8-.31v-.07l-.83.12c0-.14-.06-.25-.1-.4l1-.42v-.06l-1.08.18c0-.14-.06-.25-.09-.41l1.07-.42v-.07l-1.14.18c0-.18-.09-.35-.14-.55l1.41-.55v-.06l-1.47.26-.13-.43 1.39-.54v-.07l-1.47.25-.13-.49 1.48-.58v-.08l-1.56.28c0-.15-.09-.29-.16-.48l1.58-.62v-.09l-1.66.3c-.05-.13-.1-.25-.16-.42l1.81-.7v-.08l-2 .35-.18-.49 1.93-.74v-.07c-.54.09-1.08.16-1.61.3s-.6 0-.65-.47l2-.78v-.09l-1.75.32c-.5.09-.5.09-.7-.46l2.14-.83v-.1c-.65.12-1.31.22-2 .37-.36.08-.57 0-.63-.42l2.36-.91v-.08l-2.12.38c-.57.11-.57.11-.82-.5l2.63-1v-.08l-1.17.21c-.43.08-.86.13-1.27.24s-.7 0-.79-.46l2.73-1v-.07c-.86.15-1.73.28-2.59.48-.44.1-.69 0-.84-.48 1-.37 2-.75 3-1.14v-.06c-1 .18-2 .35-3 .56a.53.53 0 0 1-.72-.41l3-1.13v-.09c-1 .19-2 .34-3 .56a.63.63 0 0 1-.83-.41l2.86-1.1v-.1l-1.11.21c-.6.11-1.21.19-1.8.33a.63.63 0 0 1-.84-.39l2.95-1.13v-.08l-1.82.33c-.43.08-.86.13-1.27.25a.76.76 0 0 1-.91-.4l2.72-1v-.08l-1.14.2-1.1.2c-1.24.22-1.28.21-2.19-.75a2.85 2.85 0 0 1 .12-.15Zm-23.56-.39c.08-.05.32 0 .42.14a7.88 7.88 0 0 1 1.67 2.42 4.68 4.68 0 0 0 .37.7c.07.1.31.21.36.18s.26-.3.23-.42a6.16 6.16 0 0 0-.39-1.35 13.52 13.52 0 0 0-2.08-3.11c-.38-.44-.37-.54 0-1a3.15 3.15 0 0 1 1.71-.89 9.14 9.14 0 0 1 1.56-.21 36.14 36.14 0 0 1 12.23 1.58 21.77 21.77 0 0 1 10.43 7.1 27.51 27.51 0 0 1 5.22 10.74c.53 2.12 1.06 4.24 1.71 6.32a20.15 20.15 0 0 0 3 5.72.68.68 0 0 1 .11.75 7.3 7.3 0 0 1-3.63 4c-.45.24-.89.47-1.34.67a.52.52 0 0 1-.44 0 23 23 0 0 0-8.09-3.71c-2-.6-4.07-1.22-6.06-1.95a23.49 23.49 0 0 1-3.08-1.57 1.07 1.07 0 0 1-.39-.45c-.52-1.08-1-2.16-1.52-3.24h-.07c.39 1.36.7 2.75 1.18 4.07a3 3 0 0 1-.86 3.51 27.11 27.11 0 0 1-2.75 2.15c-.63.44-1.31.11-1.58-.71a13.19 13.19 0 0 1-.62-5.88c.18-1.26.47-2.51.74-3.76a.71.71 0 0 0-.19-.74 30.9 30.9 0 0 1-6.23-10.59.5.5 0 0 1 0-.16h.15c2.94 1.89 5.93 1.74 8.94.17a14 14 0 0 0 4.34-3.59.91.91 0 0 0 .11-.16c-1.18.79-2.34 1.64-3.58 2.34a8.65 8.65 0 0 1-6.41 1.17 11.58 11.58 0 0 1-2.58-1 3.93 3.93 0 0 1-2.05-2.67 28.26 28.26 0 0 1-.81-6.15.57.57 0 0 1 .29-.42Zm24.74 32.4a42.31 42.31 0 0 1-6.38 1.43c-.69.09-1-.13-1.07-.82-.2-1.42-.4-2.84-.62-4.34.41.16.77.28 1.1.45.09 0 .12.23.14.36.13 1 .26 1.92.47 2.87l.3-2.87c.46 0 .69.2.72.67.06.67.18 1.34.27 2h.1c.08-.74.17-1.48.25-2.26.77.14.77.14.86.83a9.83 9.83 0 0 0 .26 1.4c.07-.61.13-1.22.2-1.88a4 4 0 0 1 .69.21.43.43 0 0 1 .2.31 7 7 0 0 0 .25 1.17c0-.42.09-.85.14-1.27.84 0 .95.13 1.21 1 0-.22.08-.43.12-.71l1.33.39c.11.6-.05.92-.52 1.06Zm-54.61-20.7L623.93 474.5c-6.47 2-13.67 3.56-20.73 5h-.21c-18.5 4-37.57 8.07-53 20.21-15.47-12.17-34.59-16.26-53.1-20.22-12-2.55-24.45-5.17-33.08-10.33s-12.6-12.68-12.6-24Z" class="cls-1"/><path d="M502.45 300.83a61.64 61.64 0 0 1 7.44 2.79c.82.4 1.61.86 2.42 1.3a.36.36 0 0 0 0-.09l-.21-.2a18.36 18.36 0 0 0-7.88-4.41c-2.25-.59-4.52-1.06-6.78-1.59l-.84-.19a.71.71 0 0 0 .3.23c1.82.72 3.66 1.5 5.55 2.16Z" class="cls-1"/><path d="M600.51 219.89a79.66 79.66 0 0 1-6.2 8.34h61.89v217c0 13.84-5.32 23.78-16.28 30.38-9.61 5.8-22.66 8.54-35.27 11.2h-.1c-18.65 4-37.93 8.15-52.36 20.77l-2.19 1.93-2.18-1.9C533.36 495 514 490.82 495.33 486.82c-12.63-2.67-25.66-5.43-35.32-11.22-10.9-6.59-16.21-16.53-16.21-30.37v-217h61.9a80 80 0 0 1-6.21-8.34h-64v225.34c0 16.79 6.82 29.39 20.25 37.52 10.65 6.39 23.87 9.26 37.87 12.22 17.66 3.78 35.91 7.69 48.74 18.91l7.65 6.7 7.69-6.7c12.83-11.22 31.08-15.13 48.7-18.91 14-3 27.26-5.83 37.86-12.22 13.48-8.13 20.3-20.73 20.3-37.52V219.89ZM543.27 106.93l-2.4-1.94.3 1-.12.07-1.41-1.9.2.8a10 10 0 0 1-2.25-4.25.59.59 0 0 0 0-.13c-.61-1.08.1-1.73.78-2.4a11.56 11.56 0 0 1 5.63-2.8l.75-.19a4.08 4.08 0 0 0-3.33-1.4 1 1 0 0 1-.72-.23c-.77-.87-1.49-1.78-2.25-2.66a1.71 1.71 0 0 0-.63-.51c-1.73-.76-3.46-1.5-5.21-2.21a1.63 1.63 0 0 0-.9-.08 2.21 2.21 0 0 1-2.6-1.77L522.88 97l-1.64-.85 6.26-10.46-.16-.13-.93 1.07-.36-.16v.66l-.14.08c-.14-.35-.3-.69-.41-1a4.66 4.66 0 0 0-.4-1.13l-.45.8a1.28 1.28 0 0 1 .08-1.57 9.86 9.86 0 0 0 .66-1.09l-.17-.15-1 .41a1.21 1.21 0 0 1 1.23-1.22A1.29 1.29 0 0 0 526 82a2.59 2.59 0 0 0 .31-.35c1-1 2-1.74 3.54-1.17a3.85 3.85 0 0 0 .75.14l1.72-2.87a.85.85 0 0 1-.33-1.2.41.41 0 0 0 0-.34c-.45-1-.36-1.33.51-1.92 0-1.67 1-2.17 2.72-1.35l1.51-2.51c.49-.83 1-1.65 1.53-2.57-3.34-.83-6.39.1-9.41 1.19-.8-3.7 3.94-11.4 8.14-13.19a11.56 11.56 0 0 0 3.2 7.14l.38-.41.6.28 1.59-2.64 1.22.71-7.48 12.7a3.6 3.6 0 0 1 .11 3.33.6.6 0 0 0 0 .49c.67 1.12 1.37 2.23 2.14 3.46 1.32-2.28 3.47-2.56 5.56-3a11.16 11.16 0 0 0 1.93-.56 3.81 3.81 0 0 0-3.69.12c.22-.55.53-.71 2.09-1.13a6.93 6.93 0 0 0-1 0 9.18 9.18 0 0 0-1.08.28l-.56-2.4 3.24.43a1.17 1.17 0 0 0-1.24-1.17c-.94 0-1.87.08-2.94.13-.08-.28-.21-.69-.29-1.1a3.72 3.72 0 0 0-.61-1.7c-.49-.64-.26-1.07.53-1.18l4.55-.61-.24-.8 3.16-.91a1.51 1.51 0 0 1 0-.67c.09-.21.37-.34.63-.56v-.8a2.61 2.61 0 0 0-.55 0c-.58.12-.81-.16-.83-.7v-.24c-.74-.7-.24-1.42 0-2.11a1.27 1.27 0 0 1 .64-.53 6 6 0 0 1 1.13-.38 2.44 2.44 0 0 1 .66-.09c.25 0 .56.13.75 0 .53-.3 1-.53 1.61.23l.12-1.08-.14.08a4.54 4.54 0 0 1-.7-1c-.13-.37.87-1.65 1.27-1.72.23 0 .59-.06.68.07a8.76 8.76 0 0 1 1.05 1.66c.07.14-.19.57-.39.66a.8.8 0 0 0-.47 1 .72.72 0 0 1 1.13.17c.14.16.51.13.78.17 0 0 .07 0 .11-.06.71-.34.77.64 1.28.63s1 .11.91.89c0 .17.18.38.27.57s.26.41.2.51c-.21.4-.57.72-.73 1.12a.89.89 0 0 1-1.19.6 11.35 11.35 0 0 1 .34 1.33 2.54 2.54 0 0 1-.14.8 5.1 5.1 0 0 1 3.42 2.84l-.78-.53c.44.6.89 1.13 1.24 1.71a2.89 2.89 0 0 1 .43 2.12l-.62-1.18a10.49 10.49 0 0 1 .07 7.9v-1.17a11.81 11.81 0 0 0 0-1.19l-.51 2a17.9 17.9 0 0 0-3.21 0 5.09 5.09 0 0 0-2.09 1.13c-.86.69-1.61 1.52-2.32 2.2.09 0 .36-.13.61-.25s.53-.29.84-.46a7.94 7.94 0 0 0 .34 4.35l-2 .66c.28 1.33.45 2.72.86 4 .55 1.78 1.26 3.51 1.94 5.24A3.11 3.11 0 0 0 557 99a1.58 1.58 0 0 0 1.8-.78 3.65 3.65 0 0 0 .49-2.49c-.26 1.3-.34 2.59-1.87 2.91 1.37-1.06 1.41-2.59 1.35-4.09a10.75 10.75 0 0 0-1.49-5.26 15 15 0 0 1-1.55-3.87 3.67 3.67 0 0 1 1.27-3.65 3 3 0 0 1 2.7-.48 3.33 3.33 0 0 1 1.13.46l-2.21.13V82a11.1 11.1 0 0 1 2 .38 5.23 5.23 0 0 1 1.76 1.08 1.58 1.58 0 0 1 .22 2.11c-.22.38-.49.74-.74 1.09-.52.73-1 1.46-.31 2.53-1-.56-1.14-1.39-1.54-2.13v1.04a3 3 0 0 1-.19-4 5.1 5.1 0 0 0 .65.59 1.4 1.4 0 0 0 .59.06c0-.23 0-.58-.11-.66a1.34 1.34 0 0 0-1.55-.09 2.7 2.7 0 0 0-1.21 2.09 6.48 6.48 0 0 0 1 4.07 11.19 11.19 0 0 1 1.34 8.36 2.8 2.8 0 0 1-2.72 2.35 4.28 4.28 0 0 1-1.22-.25 11 11 0 0 1-1.2-.54 2.64 2.64 0 0 0-.14 2.27 1.5 1.5 0 0 0 1.09.75 5.1 5.1 0 0 0 1.94-.46 1.75 1.75 0 0 1 2.08.34 2.27 2.27 0 0 0 .41.41 4.36 4.36 0 0 1 2.25 3.67l-.88-1.45a3.85 3.85 0 0 1-.06 3.71 5.72 5.72 0 0 0-.52-3.22c-.08 1.42-.14 2.68-.21 4 0 .13 0 .26-.05.39-.21 1-.27 1-1.3 1h-4.35c-.53 0-.69-.21-.58-.66.17-.7.36-1.39.59-2.07.11-.34.37-.39.74-.33a4.77 4.77 0 0 0 1.68.09 1.57 1.57 0 0 0 .91-2.45.69.69 0 0 0-.56-.1 29.59 29.59 0 0 1-7.91.75 2 2 0 0 1-2.11-1.42c-.42-1.31-.91-2.59-1.41-4a22.69 22.69 0 0 0-2.33.72c-.86.36-.91.94-.16 1.53.46.37 1 .6 1.49 1a2 2 0 0 1 .69.79 4.76 4.76 0 0 1-.36 4.23v-2.77c-.46 1.47-.87 2.85-1.33 4.22a.72.72 0 0 1-.53.43h-7.31a.63.63 0 0 1-.2-.06 3.77 3.77 0 0 1 1.66-3.12.7.7 0 0 1 .61 0c1.66 1.11 2.92.8 3.88-1 .06-.11.11-.27.16-.34Zm14.81 3.18-.2.67.8-.75-.62.1.64-.49-.58-.07c.69-.35 1.3-.64 1.53-1.52a3.07 3.07 0 0 1-3.07 1.18.41.41 0 0 0-.37.14c-.18.42-.33.87-.49 1.3h.14l1-.82v1Zm-10.51-16.65-.08.18 4.4 2.16a19.75 19.75 0 0 1-6.45-2l-.11.26 5.29 2.55h-1.4c-.66 0-1.12.28-1.16 1-.07 1.2-.1 2.41-.11 3.61a2.78 2.78 0 0 0 .18.73c.31-2.16.74-3.56 1.42-4.25-.12.62-.24 1.22-.34 1.82a17.31 17.31 0 0 0-.24 1.76v1.73h.17l.48-1.38c.13 1.07.24 2.15.4 3.23a.83.83 0 0 0 .87.74 25.08 25.08 0 0 0 3.47 0c1.44-.19 2.85-.6 4.27-.91v-.2l-3.46.43v-.17c.3-.06.6-.1.89-.18.84-.22 1.69-.43 2.53-.69.17-.06.28-.31.42-.47a1.65 1.65 0 0 0-.63 0 3.24 3.24 0 0 1-4-.75l-2.02 1.34-.1-.14a8.16 8.16 0 0 0 1.94-3.58l-1.81 2.51-.11-.1 1.55-3.9-.19-.08-1.78 2.93a3.83 3.83 0 0 1 .32-1c.38-1.06.77-2.1 1.08-3.17.43-1.55-.31-2.81-1.07-4.07-1.05-1.74-2.16-3.47-2.26-5.54l-1.93-.65v-.14l2.22-.65c-2.19.06-4.36.31-6.49-.35a16.43 16.43 0 0 0 5.62-1.23c-3 .37-5.91.75-8.7-.71l5-.28v-.19h-.5a26 26 0 0 1-3.65-.31 3.29 3.29 0 0 0-2.94.5l-1.14.9.07.3 5.33.56-.21.09a14.19 14.19 0 0 1-5.46.53 11 11 0 0 1-4.21-1.16 6.66 6.66 0 0 1-2.84-3.49c-.08-.17-.17-.41-.3-.45a2 2 0 0 0-1.73.11l.29.35-1.54.4v.19l.84.22c-.8.14-1.51.13-1.52 1.07l.91-.27c-.3.28-.53.4-.61.58a1.27 1.27 0 0 0-.08.83c0 .13.51.26.66.17a7.2 7.2 0 0 0 1.2-.94c.21-.18.43-.61.55-.57a1.63 1.63 0 0 1 .92.59 5.59 5.59 0 0 1 .42 1.44c.24 1 .86 1.35 1.77.82a1 1 0 0 1 1-.05 19.6 19.6 0 0 0 7.68 1.93l2.51.13a17.82 17.82 0 0 1-6.26.48c1.57.51 3.15.94 4.74 1.34a1 1 0 0 0 .63-.12 18.26 18.26 0 0 0 4.52-2.56l-1.7 2.2 2.66-.37.06.09-2.22 1.21 3.36-.66.06.13-2.64 1.5v.13l3.52-1.11-1.5 1.2a7.92 7.92 0 0 0 3.37 3.17l-.09.18Zm-7-13.31c1 .12 2.09.25 3.17.4a9.43 9.43 0 0 0 1.54.28c2.12-.06 4.24-.21 6.09-1.78a8.89 8.89 0 0 1-3.65 3.34c2.39-.84 4.67-1.83 5.92-4.28 0 2.44-1.5 3.84-3.3 5.07 3.84-1.38 5.28-4.5 5.94-8.2a14.41 14.41 0 0 1 .17 2c0 .68-.07 1.35-.11 2a8.73 8.73 0 0 0 .37-5.87A9.61 9.61 0 0 1 558 78.1c.42-2.15.67-4.28-.38-6.35 1.4 1.71 1.53 3.8 1.82 5.91.55-3-.6-6.89-2.44-7.44l.76 1-1.65-.61.7 1.64c-.59-.36-1-1-1.8-.95.37 2 .81 3.9-.19 5.77a10.06 10.06 0 0 0-1-5c.32 2.06.2 4-1.42 5.62.79-2.6 1-4.28.51-5.23.26 4.57-1.62 6.2-3.8 6.71A5.69 5.69 0 0 0 551.5 76l-4.61 2.75.84-.12a1.38 1.38 0 0 1-.59.42 7.84 7.84 0 0 1-4.34.38 2.81 2.81 0 0 0-2.24.72ZM540 63.67a12.27 12.27 0 0 1-3.78-5.44 10.81 10.81 0 0 0 1.8 4.38 10.75 10.75 0 0 1-2.88-4.76 15.1 15.1 0 0 0-5.14 9.67 16.57 16.57 0 0 1 7-1.08 12.11 12.11 0 0 0-5.19 0 12.09 12.09 0 0 1 6.28-1 1 1 0 0 0 .79-.19 15.62 15.62 0 0 0 1.12-1.58Zm7.53 9.87v-.2l3.35.44v-.09l-3.17-.91v-.11l3.14.35v-.06l-2.49-.63c.64-.12 1.11-.2 1.58-.3s.92-.22 1.38-.33l-.23-1h.08l.88 1.16-.18-1.59a3.38 3.38 0 0 0 4.35-.39c.24-.26.49-.75.39-1s-.57-.52-.92-.61a3.94 3.94 0 0 0-2.63.3 2.81 2.81 0 0 0-1.59 2v-1.7l-.61-.32 1.05.09a7.47 7.47 0 0 0-5.41.32c0 .43.26.5.66.49h2.58l-1.29.51.83.27A2.53 2.53 0 0 0 547 71.9v-.68l-.29.41c-.7-.54-.56-1.1 0-1.63-1-.51-4.56 0-4.71.67l3.42-.51-3.43 1.12c.62 1.62 1.31 1.74 4.12.87l-.3.39a4.58 4.58 0 0 1 .82 1.09c.19.55.42 1 1.14.87l-.07.18-4.14.48.27.8a3.64 3.64 0 0 1 3.47.5l.11-.12-.72-1 1.74.34-.63-.54 2.43-.73v-.21Zm-12 11.88 1.37-1.24-3.31-5.51c-.72 1.23-1.45 2.44-2.17 3.67-.08.14-.15.4-.08.48a4.91 4.91 0 0 0 1.25 1.38 25.39 25.39 0 0 0 2.92 1.22ZM547 98.35c-.08-.6-.12-1.14-.23-1.67-.06-.33-.29-.44-.65-.34-1.34.4-2.7.73-4 1.16a9.6 9.6 0 0 0-3.53 2l3.24.19L541 99v-.14l3.48.54.06-.08-1.71-1.08a7.15 7.15 0 0 1 1.68.33c.55.17 1.08.4 1.63.6l.11-.14-1.66-1.36v-.1Zm-10.36-18.53.16-.07-.8-2.46a1.31 1.31 0 0 1 .12-1.1c.22-.5.46-1.3.23-1.64a11.12 11.12 0 0 0-2-1.82l-.22.14c0 .26-.11.63 0 .78a15.24 15.24 0 0 0 1.33 1.26 8.27 8.27 0 0 0-.84 1 .81.81 0 0 0 0 .68 10 10 0 0 0 .61.89c.48.76.94 1.52 1.41 2.34Zm-9.07 7.45c-.31-.26-.54-.29-.76.08l-4.52 7.74.56.33Zm12.91-23.78L538.36 67l.79.47 2.1-3.43ZM540 81.54v.21a6.36 6.36 0 0 0 5.5.07c-1.1-.1-2.31-.25-3.52-.33-.69-.04-1.36.03-1.98.05Zm-.79 28.46v1l.64-.42.2.3 1.16-.61-.33-.09.29-.2-.59-.07 1-.6c-.75 0-1.46.13-2.17.11-1 0-1.32.28-1.33 1.25Zm10.65-47c.07.24.07.36.13.42s.33.36.51.38a.62.62 0 0 0 .48-.33c0-.15-.13-.37-.21-.55a1.83 1.83 0 0 0-.27-.52c-.18-.21-.41-.51-.63-.52s-.47.27-.68.46a2.09 2.09 0 0 0-.37.5c-.1.16-.26.37-.22.49a.75.75 0 0 0 .45.42c.14 0 .37-.09.51-.2a1.94 1.94 0 0 0 .3-.55Zm5.7.27c.08.24.08.35.14.41a1.62 1.62 0 0 0 .57.42c.11 0 .43-.19.43-.28a2.42 2.42 0 0 0-.27-.65 1.51 1.51 0 0 0-.15-.39c-.19-.23-.39-.6-.62-.63s-.51.28-.74.48a1.28 1.28 0 0 0-.28.43 1.38 1.38 0 0 0-.26.6c0 .12.26.35.39.35a1.26 1.26 0 0 0 .59-.29c.08-.02.1-.17.2-.41Zm-2.9-.13c.05.14.06.23.11.28s.3.42.49.49a.59.59 0 0 0 .5-.28c0-.21-.17-.42-.26-.64a2.71 2.71 0 0 0-.14-.43c-.17-.22-.37-.57-.57-.58s-.54.23-.77.41a1.32 1.32 0 0 0-.4.51c-.09.21-.19.54-.09.67a.76.76 0 0 0 .67.14c.16 0 .26-.27.46-.53ZM531 81.75l2.69-4.54c-.9-.08-2.94 3.41-2.69 4.54Zm5-8.37 2-3.49-.48-.23-2.06 3.45Zm13-6.62V67l6.91.42a22.58 22.58 0 0 0-6.91-.66Zm3.87-6.5c.32-.33.81-.65.77-.83-.1-.36-.49-.65-.75-1a3.28 3.28 0 0 0-.73 1c-.05.21.42.57.7.83ZM541.4 63l.1.19c.17-.08.42-.11.5-.24.4-.65.76-1.32 1.14-2l-.11-.18c-.16.08-.4.11-.48.24-.41.64-.77 1.31-1.15 1.99Zm13.09 1.51c-.71-.52-.9-.4-1.29.89l1.19.06Zm-5 1.1v.17l6.08.44V66Zm2-.33v-.76a.57.57 0 0 0-.13-.36h-.33c-.61.16-.27.73-.52 1.11Zm-17.68 10.86c0-.87-.86-.68-1.17-1.19-.38 1.21.66.87 1.17 1.19Zm21.46-11.93c-.19.3-.42.5-.38.65a.61.61 0 0 0 .47.38.62.62 0 0 0 .42-.44c0-.15-.26-.32-.51-.59Zm-2.32.4c-.28-.23-.44-.47-.57-.45s-.35.24-.52.37c.13.15.26.41.4.43s.37-.18.74-.35Zm-19.09 10.44-.39-1.68c-.63.57-.63.57.39 1.68Zm16-10.47c-.24-.2-.41-.44-.54-.43s-.34.25-.51.38c.15.15.29.39.47.43s.35-.2.61-.38Zm3.92-2.18-.16.14c.11.18.24.5.32.49a2 2 0 0 0 .61-.33l-.08-.15Z" class="cls-1"/><path d="m555.48 68.48-.6.29L556 69a2.24 2.24 0 0 1-2.29 1.27.65.65 0 0 1-.21-1.11 2.64 2.64 0 0 1 1.98-.68Z" class="cls-1"/></svg>